<?xml version="1.0" encoding="UTF-8" standalone="no"?>
<!-- Created with Sodipodi ("http://www.sodipodi.com/") -->
<svg
   xmlns:ns="http://ns.adobe.com/Variables/1.0/"
   xmlns:i="http://ns.adobe.com/AdobeIllustrator/10.0/"
   xmlns:dc="http://purl.org/dc/elements/1.1/"
   xmlns:cc="http://web.resource.org/cc/"
   xmlns:rdf="http://www.w3.org/1999/02/22-rdf-syntax-ns#"
   xmlns:svg="http://www.w3.org/2000/svg"
   xmlns="http://www.w3.org/2000/svg"
   xmlns:xlink="http://www.w3.org/1999/xlink"
   xmlns:sodipodi="http://sodipodi.sourceforge.net/DTD/sodipodi-0.dtd"
   xmlns:inkscape="http://www.inkscape.org/namespaces/inkscape"
   xlink:href="A453C314.png"
   i:viewOrigin="244.5059 462.248"
   i:rulerOrigin="-242 -332"
   i:pageBounds="242 460 370 332"
   width="32pt"
   height="32pt"
   viewBox="0 0 140.166 143.432"
   overflow="visible"
   enable-background="new 0 0 140.166 143.432"
   xml:space="preserve"
   id="svg153"
   sodipodi:version="0.32"
   sodipodi:docname="emblem-web.svg"
   sodipodi:docbase="/home/rursus/Desktop/icons/Grass/scalable/emblems"
   inkscape:version="0.44.1">
  <defs
   id="defs498"><linearGradient
   id="linearGradient4211"
   gradientUnits="userSpaceOnUse"
   x1="-195.5322"
   y1="376.2266"
   x2="-203.8642"
   y2="380.8235"
   gradientTransform="matrix(1 0 0 -1 233.1519 413.8262)">
      <stop
   offset="0"
   style="stop-color:white;stop-opacity:0.7079646;"
   id="stop4213" /><stop
   id="stop4217"
   style="stop-color:#857fff;stop-opacity:0.18584071;"
   offset="0.5" />
      <stop
   offset="1"
   style="stop-color:#0c00ff;stop-opacity:0.460177;"
   id="stop4215" />
    </linearGradient><linearGradient
   id="linearGradient3714"><stop
     style="stop-color:#8383ff;stop-opacity:1;"
     offset="0"
     id="stop3716" /><stop
     style="stop-color:#000b94;stop-opacity:1;"
     offset="1"
     id="stop3718" /></linearGradient>
    <linearGradient
   id="XMLID_32_"
   gradientUnits="userSpaceOnUse"
   x1="-164.8579"
   y1="426.2344"
   x2="-109.3032"
   y2="370.6797"
   gradientTransform="matrix(1 0 0 -1 237 454.4961)">
      <stop
   offset="0"
   style="stop-color:#E8E8E8"
   id="stop438" />
      <stop
   offset="1"
   style="stop-color:#BDBDBD"
   id="stop439" />
      
      
      
    </linearGradient>
  
    
    
    
  
      
    
        <radialGradient
   gradientUnits="userSpaceOnUse"
   gradientTransform="matrix(2.27459,0,0,-2.37399,430.8218,929.7732)"
   fy="361.18161"
   fx="-158.0244"
   r="28.169901"
   cy="361.18161"
   cx="-158.0244"
   id="XMLID_35_"
   xlink:href="#XMLID_33_">
          <stop
   id="stop465"
   style="stop-color:#FFFFFF"
   offset="0.0056" />
          <stop
   id="stop466"
   style="stop-color:black;stop-opacity:1;"
   offset="1" />
          
          
          
        </radialGradient>
        
      <radialGradient
   inkscape:collect="always"
   xlink:href="#XMLID_35_"
   id="radialGradient3700"
   cx="71.379745"
   cy="72.333763"
   fx="71.379745"
   fy="72.333763"
   r="64.074631"
   gradientTransform="matrix(1,0,0,1.043686,0,-3.159994)"
   gradientUnits="userSpaceOnUse" /><linearGradient
   inkscape:collect="always"
   xlink:href="#linearGradient3714"
   id="linearGradient1899"
   gradientUnits="userSpaceOnUse"
   x1="50.3055"
   y1="93.315376"
   x2="107.64575"
   y2="93.315376" /><linearGradient
   inkscape:collect="always"
   xlink:href="#XMLID_34_"
   id="linearGradient1903"
   gradientUnits="userSpaceOnUse"
   x1="62.398769"
   y1="93.001282"
   x2="95.264023"
   y2="93.001282" />
  <linearGradient
   gradientTransform="matrix(1 0 0 -1 233.1519 413.8262)"
   y2="380.8235"
   x2="-203.8642"
   y1="376.2266"
   x1="-195.5322"
   gradientUnits="userSpaceOnUse"
   id="XMLID_7_">
      <stop
   id="stop248"
   style="stop-color:#FFFFFF"
   offset="0" />
      <stop
   id="stop249"
   style="stop-color:#000000"
   offset="1" />
    </linearGradient>
    <radialGradient
   inkscape:collect="always"
   xlink:href="#linearGradient4211"
   id="radialGradient4209"
   cx="39.980099"
   cy="50.507267"
   fx="39.980099"
   fy="50.507267"
   r="61.071144"
   gradientTransform="matrix(1.163187,1.280012e-3,-1.416558e-3,1.278149,-6.45267,-14.79914)"
   gradientUnits="userSpaceOnUse" /></defs>
  <sodipodi:namedview
   id="base"
   inkscape:zoom="10.25"
   inkscape:cx="20"
   inkscape:cy="21.121892"
   inkscape:window-width="980"
   inkscape:window-height="658"
   inkscape:window-x="239"
   inkscape:window-y="304"
   inkscape:current-layer="svg153" />
  <metadata
   id="metadata154">
    <sfw
   id="sfw9">
      <slices
   id="slices11" />
      <sliceSourceBounds
   y="318.816"
   x="244.506"
   width="140.166"
   height="143.432"
   bottomLeftOrigin="true"
   id="sliceSourceBounds13" />
    </sfw>
    <ns:variableSets>
      <ns:variableSet
   varSetName="binding1"
   locked="none">
        <ns:variables />
        <ns:sampleDataSets />
      </ns:variableSet>
    </ns:variableSets>
  <rdf:RDF><cc:Work
     rdf:about=""><dc:format>image/svg+xml</dc:format><dc:type
       rdf:resource="http://purl.org/dc/dcmitype/StillImage" /></cc:Work></rdf:RDF></metadata>
  
<path
   sodipodi:type="arc"
   style="fill:black;fill-opacity:0.50196078;fill-rule:evenodd;stroke:none;stroke-width:0.31;stroke-linejoin:miter;stroke-miterlimit:4;stroke-dasharray:none;stroke-dashoffset:0;stroke-opacity:1"
   id="path1905"
   sodipodi:cx="127.98055"
   sodipodi:cy="121.9172"
   sodipodi:rx="49.151699"
   sodipodi:ry="52.999874"
   d="M 177.13225 121.9172 A 49.151699 52.999874 0 1 1  78.828854,121.9172 A 49.151699 52.999874 0 1 1  177.13225 121.9172 z"
   transform="matrix(1.272211,0,0,1.211656,-83.55059,-69.90665)" /><g
   id="g3257"
   transform="matrix(2.715774,0,0,2.868928,209.4252,-4.335463)"><g
     transform="translate(-76.99838,1.945393)"
     style="font-size:12px;stroke:black"
     id="g159">
    <path
   id="path160"
   d="M 0,22.836 C 0,10.225 10.225,0 22.837,0 C 35.449,0 45.672,10.225 45.672,22.836 C 45.672,35.447 35.449,45.673 22.837,45.673 C 10.225,45.673 0,35.448 0,22.836 z "
   style="stroke:none" />
  </g><g
     transform="translate(-76.99838,1.945393)"
     style="font-size:12px;stroke:black"
     id="g161">
    <path
   id="path162"
   d="M 1.794,22.836 C 1.794,11.215 11.215,1.794 22.836,1.794 C 34.458,1.794 43.878,11.215 43.878,22.836 C 43.878,34.458 34.458,43.878 22.836,43.878 C 11.215,43.879 1.794,34.458 1.794,22.836 z "
   style="fill:#59f0f0;stroke:none" />
  </g><g
     transform="translate(-76.99838,1.945393)"
     style="font-size:12px;stroke:black"
     id="g163">
    <g
   id="g164">
      <g
   id="g165">
        <path
   id="path166"
   d="M 29.464,42.591 C 29.722,41.497 30.301,39.182 29.271,38.988 C 28.241,38.796 26.311,38.666 25.732,38.023 C 25.152,37.379 24.573,37.379 24.188,37.122 C 23.802,36.864 23.223,36.028 23.802,35.256 C 24.381,34.484 24.252,33.712 23.48,33.262 C 22.708,32.81 22.257,33.39 21.614,33.454 C 20.97,33.518 19.426,32.489 18.267,32.489 C 17.108,32.489 16.015,32.489 15.822,31.845 C 15.114,32.295 10.867,31.523 11.06,30.236 C 10.609,29.786 8.936,27.92 8.486,27.277 C 8.55,27.791 8.936,28.885 9.322,29.207 C 8.228,28.435 7.327,27.084 7.263,26.053 C 6.748,25.602 5.461,23.223 5.655,22.514 C 5.848,21.806 6.041,19.296 6.427,19.232 C 6.813,19.168 6.492,18.847 6.3,18.46 C 6.107,18.074 5.978,17.43 5.978,17.108 C 5.978,16.787 6.3,15.95 5.978,15.886 C 5.656,15.822 4.948,15.371 5.399,15.371 C 5.849,15.371 6.236,15.629 6.236,15.178 C 6.236,14.728 5.978,13.505 5.785,13.312 C 5.593,13.119 5.657,13.183 5.271,13.44 C 4.885,13.697 4.499,13.762 4.434,13.569 C 4.369,13.376 4.498,13.44 4.82,12.99 C 5.142,12.539 5.914,11.252 6.172,10.802 C 6.429,10.352 6.365,10.931 7.201,9.966 C 8.037,9.001 8.488,8.1 8.488,9.001 C 8.488,9.902 8.681,10.289 9.196,10.289 C 9.711,10.289 9.775,10.096 9.84,10.481 C 9.904,10.868 9.968,11.318 10.484,11.125 C 10.999,10.933 11.449,11.189 11.707,10.933 C 11.964,10.674 11.514,10.417 11.835,10.353 C 12.158,10.289 12.286,10.868 12.415,10.417 C 12.543,9.967 12.351,9.258 12.801,9.709 C 13.251,10.16 13.38,10.224 13.701,10.031 C 14.023,9.837 15.053,9.774 14.152,10.353 C 13.251,10.933 13.186,10.868 13.058,11.447 C 12.93,12.026 12.865,11.833 12.543,12.477 C 12.222,13.12 11.578,13.764 12.415,14.214 C 13.251,14.665 14.345,14.793 14.345,14.793 C 14.345,14.793 15.246,14.085 15.117,14.856 C 14.989,15.629 14.924,16.08 15.374,15.951 C 15.825,15.822 16.598,15.887 16.082,15.307 C 15.567,14.728 15.631,15.114 15.825,14.277 C 16.017,13.441 15.889,13.506 15.631,13.119 C 15.374,12.733 14.731,11.51 15.374,11.446 C 16.018,11.382 16.533,11.189 16.726,11.51 C 16.919,11.832 17.562,12.411 17.82,12.09 C 18.078,11.769 17.756,10.867 18.72,11.51 C 19.686,12.154 18.656,12.476 19.686,12.476 C 20.715,12.476 21.681,12.411 21.681,12.668 C 21.681,12.926 20.973,14.148 20.458,14.341 C 19.943,14.534 19.75,14.084 19.557,14.663 C 19.364,15.242 18.72,16.465 19.107,16.014 C 19.492,15.564 20.136,14.598 20.2,15.177 C 20.264,15.757 20.2,16.207 20.844,16.143 C 21.487,16.079 22.452,15.5 21.616,16.336 C 20.779,17.172 20.715,17.752 20.779,17.172 C 20.843,16.593 20.843,16.271 20.328,17.044 C 19.814,17.816 19.685,18.395 19.942,18.395 C 20.199,18.395 20.199,18.588 19.878,18.781 C 19.556,18.974 19.363,19.875 19.17,20.389 C 18.977,20.904 18.591,21.483 18.977,21.548 C 19.363,21.612 19.234,22.577 19.234,22.577 C 19.234,22.577 17.496,24.508 18.14,25.087 C 18.784,25.666 19.556,26.566 19.234,26.76 C 18.912,26.952 18.14,25.73 17.947,25.537 C 17.755,25.345 15.824,25.086 15.695,25.409 C 15.567,25.73 16.017,25.988 15.695,26.052 C 15.374,26.116 14.215,26.375 13.765,26.631 C 13.315,26.888 13.186,27.725 13.25,28.047 C 13.314,28.369 13.636,31.135 15.116,30.813 C 16.596,30.493 16.724,30.364 16.467,29.72 L 17.626,29.27 C 17.626,29.27 17.369,31.136 17.948,31.2 C 18.528,31.264 19.364,31.071 19.556,31.071 C 19.75,31.071 20.2,32.744 20.586,32.873 C 20.972,33.002 22.066,32.873 22.71,32.423 C 23.353,31.974 23.675,33.002 23.739,32.487 C 23.803,31.973 24.51,30.879 25.154,30.621 C 25.154,31.071 25.154,31.522 25.541,31.393 C 25.927,31.265 25.669,30.428 25.669,30.428 C 25.669,30.428 28.243,30.556 28.243,29.784 C 28.243,29.784 29.659,29.397 29.981,29.848 C 30.173,29.398 30.495,29.784 31.01,29.912 C 31.525,30.04 31.847,29.59 32.555,29.268 C 33.262,28.947 34.807,29.204 35,29.718 C 35.192,30.234 35.578,30.747 35.836,29.847 L 37.316,29.461 C 37.316,29.461 38.153,28.624 38.731,28.56 C 39.31,28.496 39.89,28.11 39.955,28.496 C 40.018,28.881 39.762,30.426 39.376,30.747 C 38.989,31.068 39.183,31.327 39.312,31.648 C 39.441,31.97 39.119,33.707 38.861,34.029 C 38.603,34.351 38.861,34.415 38.346,34.865 C 37.831,35.316 37.574,35.959 37.38,36.345 C 37.189,36.731 36.866,37.824 36.352,38.276 C 35.837,38.726 35.515,39.241 35.515,39.241 C 34.805,39.825 32.939,42.076 29.464,42.591 z "
   style="fill:#2f9e32;stroke:none" />
      </g>
      <g
   id="g167">
        <path
   id="path168"
   d="M 19.04,28.114 C 19.426,27.921 19.49,27.856 19.876,27.856 C 20.262,27.856 21.484,27.92 21.871,27.92 C 22.258,27.92 22.386,28.305 21.999,28.37 C 21.614,28.434 20.97,28.177 20.52,28.177 C 20.069,28.177 19.297,28.435 19.04,28.114 z "
   style="fill:#2f9e32;stroke:none" />
      </g>
      <g
   id="g169">
        <path
   id="path170"
   d="M 23.416,27.92 C 23.609,27.598 24.445,27.406 24.832,27.598 C 25.218,27.791 23.995,28.499 23.673,28.435 C 23.351,28.371 23.416,27.92 23.416,27.92 z "
   style="fill:#2f9e32;stroke:none" />
      </g>
      <g
   id="g171">
        <path
   id="path172"
   d="M 22,13.635 C 22,13.635 22.193,14.214 22.064,14.471 C 21.936,14.729 22.643,14.343 23.158,14.343 C 23.672,14.343 23.35,14.15 23.222,13.764 C 23.093,13.377 22.386,13.635 22,13.635 z "
   style="fill:#2f9e32;stroke:none" />
      </g>
      <g
   id="g173">
        <path
   id="path174"
   d="M 15.243,6.749 C 15.629,6.621 15.693,6.299 16.53,6.749 C 17.366,7.2 17.43,6.75 18.138,7.457 C 18.846,8.165 20.068,9.387 21.613,8.808 C 21.29,8.036 20.776,7.843 20.841,7.135 C 20.905,6.427 21.034,5.397 21.034,5.397 L 20.39,5.655 L 20.326,5.14 C 20.326,5.14 18.074,4.69 17.623,4.754 C 17.173,4.817 17.173,4.496 16.851,4.496 C 16.529,4.496 16.465,5.011 16.207,5.011 C 15.949,5.011 15.114,4.625 15.242,5.14 C 15.37,5.654 15.564,5.783 15.306,6.105 C 15.05,6.427 15.243,6.749 15.243,6.749 z "
   style="fill:#2f9e32;stroke:none" />
      </g>
      <g
   id="g175">
        <path
   id="path176"
   d="M 13.828,8.679 C 14.085,8.293 14.343,8.036 14.407,8.293 C 14.471,8.551 14.535,8.808 15.244,8.615 C 15.952,8.422 16.144,8.551 16.402,8.743 C 16.66,8.936 17.303,9 17.303,9.322 C 17.303,9.643 17.046,9.837 16.788,9.579 C 16.53,9.321 16.144,8.936 16.144,9.257 C 16.144,9.579 16.337,10.223 16.981,10.158 C 17.625,10.094 17.817,10.48 17.303,10.48 C 16.789,10.48 16.917,10.672 16.595,10.738 C 16.273,10.801 15.951,10.351 15.629,10.48 C 15.629,10.48 15.758,9.579 15.372,9.515 C 14.986,9.451 14.857,9.643 14.857,9.643 C 14.857,9.643 14.921,9.322 14.599,9.193 C 14.277,9.064 14.149,9.385 13.762,9.385 C 13.377,9.387 13.055,8.293 13.828,8.679 z "
   style="fill:#2f9e32;stroke:none" />
      </g>
      <g
   id="g177">
        <path
   id="path178"
   d="M 10.031,6.042 C 10.031,6.042 10.095,6.428 10.289,6.364 C 10.482,6.3 11.254,5.721 11.768,5.335 C 12.283,4.948 12.734,4.562 12.669,4.369 C 12.605,4.175 10.609,5.462 10.031,6.042 z "
   style="fill:#2f9e32;stroke:none" />
      </g>
      <g
   id="g179">
        <path
   id="path180"
   d="M 9.258,6.685 C 9.569,6.581 9.066,7.2 8.679,7.65 C 8.293,8.101 8.036,8.101 7.65,8.551 C 7.264,9.001 6.62,9.516 6.363,9.774 C 6.106,10.031 5.591,10.416 5.591,10.416 C 5.591,10.416 8.679,6.878 9.258,6.685 z "
   style="fill:#2f9e32;stroke:none" />
      </g>
      <g
   id="g181">
        <path
   id="path182"
   d="M 21.742,2.051 C 21.678,2.438 21.356,2.631 21.87,2.631 C 22.385,2.631 24.444,2.695 24.959,3.21 C 25.474,3.724 27.275,3.467 27.726,3.081 C 28.177,2.695 27.533,2.567 26.89,2.631 C 26.246,2.695 25.667,2.695 25.281,2.503 C 24.895,2.31 24.444,2.181 24.444,1.924 C 23.608,1.859 22.128,1.859 21.742,2.051 z "
   style="fill:#2f9e32;stroke:none" />
      </g>
      <g
   id="g183">
        <path
   id="path184"
   d="M 28.306,2.438 C 28.306,2.438 29.335,3.21 29.078,3.274 C 28.821,3.338 28.178,3.338 28.178,3.338 C 28.178,3.338 28.822,3.401 29.143,3.659 C 29.465,3.917 29.336,4.367 30.044,4.56 C 30.752,4.753 30.944,5.654 31.267,5.912 C 31.589,6.169 31.332,5.59 31.846,5.72 C 32.361,5.848 33.712,6.685 33.326,6.813 C 32.939,6.942 32.811,7.457 33.518,7.843 C 34.227,8.229 34.998,8.551 35.191,9.001 C 35.513,8.486 35.642,7.649 35.063,7.328 C 34.484,7.007 33.711,6.684 33.583,6.169 C 33.455,5.655 33.391,5.205 33.455,4.818 C 32.167,3.725 28.756,2.502 28.306,2.438 z "
   style="fill:#2f9e32;stroke:none" />
      </g>
      <g
   id="g185">
        <path
   id="path186"
   d="M 35.899,6.363 C 36.028,6.878 36.415,8.679 36.028,8.937 C 35.642,9.194 36.028,9.323 36.286,9.58 C 36.543,9.837 36.607,9.708 36.993,10.288 C 37.38,10.868 37.701,11.318 37.701,12.09 C 37.701,12.863 38.216,13.57 38.474,14.02 C 38.731,14.471 40.34,15.693 40.34,16.337 C 40.34,16.98 40.276,17.624 40.984,17.752 C 41.691,17.881 42.012,17.945 42.206,18.267 C 42.399,18.589 42.978,18.589 43.3,18.654 C 42.914,15.887 41.241,10.61 35.899,6.363 z "
   style="fill:#2f9e32;stroke:none" />
      </g>
      <g
   id="g187">
        <path
   id="path188"
   d="M 22.965,5.334 L 22.965,5.591 L 23.801,5.72 L 23.801,5.076 L 22.707,4.884 L 22.965,5.334 z "
   style="fill:#2f9e32;stroke:none" />
      </g>
      <g
   id="g189">
        <path
   id="path190"
   d="M 27.277,4.497 C 26.955,4.497 27.212,4.819 27.598,4.884 C 27.985,4.948 28.306,4.884 28.821,4.948 C 29.336,5.012 29.723,5.076 29.851,5.335 C 29.98,5.592 30.302,5.592 30.302,5.335 C 30.302,5.077 30.366,4.756 29.787,4.691 C 29.208,4.627 28.564,4.562 28.243,4.498 C 27.922,4.434 27.277,4.497 27.277,4.497 z "
   style="fill:#2f9e32;stroke:none" />
      </g>
      <g
   id="g191">
        <path
   id="path192"
   d="M 28.5,5.527 L 29.272,5.527 L 29.272,6.169 L 28.5,5.527 z "
   style="fill:#2f9e32;stroke:none" />
      </g>
      <g
   id="g193">
        <path
   id="path194"
   d="M 11.575,9.837 C 11.575,9.837 11.382,10.353 11.124,10.353 C 10.866,10.353 10.416,9.774 10.867,9.581 C 11.318,9.387 11.575,9.837 11.575,9.837 z "
   style="fill:#2f9e32;stroke:none" />
      </g>
      <g
   id="g195">
        <path
   id="path196"
   d="M 10.609,9.13 C 10.288,9.387 10.095,9.644 9.901,9.58 C 9.709,9.516 10.159,9.001 10.417,8.872 C 10.674,8.744 10.609,9.13 10.609,9.13 z "
   style="fill:#2f9e32;stroke:none" />
      </g>
      <g
   id="g197">
        <path
   id="path198"
   d="M 11.061,8.358 L 11.447,8.229 L 11.962,8.808 L 12.413,8.808 L 12.284,9.516 L 12.026,9.516 L 11.061,8.358 z "
   style="fill:#2f9e32;stroke:none" />
      </g>
      <g
   id="g199">
        <path
   id="path200"
   d="M 13.184,7.071 C 13.506,7.008 13.892,7.008 14.085,6.17 C 14.277,5.335 14.6,5.656 14.471,6.235 C 14.343,6.814 13.828,6.879 14.085,7.2 C 14.342,7.522 14.213,7.392 13.828,7.328 C 13.441,7.264 13.184,7.392 13.184,7.071 z "
   style="fill:#2f9e32;stroke:none" />
      </g>
    </g>
  </g></g><path
   sodipodi:type="arc"
   style="opacity:1;fill:url(#radialGradient4209);fill-opacity:1.0;fill-rule:evenodd;stroke:#576000;stroke-width:0.40000001;stroke-linecap:round;stroke-linejoin:round;stroke-miterlimit:4;stroke-dasharray:none;stroke-dashoffset:0;stroke-opacity:0.53361344"
   id="path3316"
   sodipodi:cx="61.337147"
   sodipodi:cy="65.768822"
   sodipodi:rx="60.871143"
   sodipodi:ry="63.669815"
   d="M 122.20829 65.768822 A 60.871143 63.669815 0 1 1  0.46600342,65.768822 A 60.871143 63.669815 0 1 1  122.20829 65.768822 z"
   transform="matrix(0.982816,0,0,0.986317,2.103511,1.774474)" /></svg>