<?xml version="1.0" encoding="UTF-8" standalone="no"?>
<svg
   xmlns:svg="http://www.w3.org/2000/svg"
   xmlns="http://www.w3.org/2000/svg"
   xmlns:xlink="http://www.w3.org/1999/xlink"
   version="1.0"
   width="128"
   height="128"
   id="svg2">
  <defs
     id="defs4">
    <linearGradient
       id="linearGradient3244">
      <stop
         id="stop3246"
         style="stop-color:#ffa946"
         offset="0" />
      <stop
         id="stop3248"
         style="stop-color:#ffe5bb;stop-opacity:0"
         offset="1" />
    </linearGradient>
    <linearGradient
       id="linearGradient3231">
      <stop
         id="stop3233"
         style="stop-color:#353535"
         offset="0" />
      <stop
         id="stop3235"
         style="stop-color:#808080;stop-opacity:0"
         offset="1" />
    </linearGradient>
    <linearGradient
       id="linearGradient3213">
      <stop
         id="stop3215"
         style="stop-color:#fffebc"
         offset="0" />
      <stop
         id="stop3276"
         style="stop-color:#ffff63"
         offset="0.26138234" />
      <stop
         id="stop3282"
         style="stop-color:#ef9422"
         offset="0.53961325" />
      <stop
         id="stop3217"
         style="stop-color:#7c350f"
         offset="1" />
    </linearGradient>
    <linearGradient
       id="linearGradient3203">
      <stop
         id="stop3205"
         style="stop-color:#ffffff"
         offset="0" />
      <stop
         id="stop3284"
         style="stop-color:#ffffff;stop-opacity:0.78431374"
         offset="0.41404471" />
      <stop
         id="stop3207"
         style="stop-color:#ffffff;stop-opacity:0"
         offset="1" />
    </linearGradient>
    <radialGradient
       cx="308.60162"
       cy="215.62161"
       r="35.355339"
       fx="308.60162"
       fy="215.62161"
       id="radialGradient3362"
       xlink:href="#linearGradient3203"
       gradientUnits="userSpaceOnUse"
       gradientTransform="matrix(-1.2965095,0,0,-1.1945816,464.10494,269.83078)" />
    <radialGradient
       cx="298.62634"
       cy="283.76059"
       r="51.644051"
       fx="298.62634"
       fy="283.76059"
       id="radialGradient3368"
       xlink:href="#linearGradient3213"
       gradientUnits="userSpaceOnUse"
       gradientTransform="matrix(1.533088,1.1421906e-7,-1.2381288e-7,1.6618596,-393.82043,-383.55743)" />
    <radialGradient
       cx="310.36938"
       cy="305.35437"
       r="20.203051"
       fx="310.36938"
       fy="305.35437"
       id="radialGradient3371"
       xlink:href="#linearGradient3244"
       gradientUnits="userSpaceOnUse"
       gradientTransform="matrix(1.85,0,0,0.475,-510.18336,-43.265346)" />
    <radialGradient
       cx="305.82367"
       cy="317.93091"
       r="36.618031"
       fx="305.82367"
       fy="317.93091"
       id="radialGradient3374"
       xlink:href="#linearGradient3231"
       gradientUnits="userSpaceOnUse"
       gradientTransform="matrix(-1.2689655,0,0,-0.5057575,452.07969,263.83663)" />
  </defs>
  <path
     d="M 110.46702,103.04067 C 110.47302,116.72885 89.667266,127.82699 64.000002,127.82699 C 38.332739,127.82699 17.526983,116.72885 17.532986,103.04067 C 17.526983,89.3525 38.332739,78.254355 64.000002,78.254355 C 89.667266,78.254355 110.47302,89.3525 110.46702,103.04067 z"
     id="path3229"
     style="fill:url(#radialGradient3374)" />
  <path
     d="M 101.37565,101.77798 C 101.37565,107.07794 84.641995,111.37442 63.999991,111.37442 C 43.358006,111.37442 26.624349,107.07794 26.624349,101.77798 C 26.624349,96.478006 43.358006,92.181527 63.999991,92.181527 C 84.641995,92.181527 101.37565,96.478006 101.37565,101.77798 z"
     id="path3242"
     style="fill:url(#radialGradient3371)" />
  <path
     d="M 115.64405,52.154214 C 115.64966,80.680404 92.52619,103.80842 64,103.80842 C 35.47381,103.80842 12.35034,80.680404 12.35595,52.154214 C 12.35034,23.628024 35.47381,0.50000408 64,0.50000408 C 92.52619,0.50000408 115.64966,23.628024 115.64405,52.154214 L 115.64405,52.154214 z"
     id="path3211"
     style="fill:url(#radialGradient3368);stroke:#505050;stroke-width:1;stroke-opacity:0.50196078" />
  <path
     d="M 79.564408,96.349155 C 82.073008,94.867285 80.485698,95.758975 80.241318,93.242555 C 79.585008,86.484235 76.675458,84.812395 73.725648,83.956095 C 69.792628,84.257135 68.778388,84.051905 66.026088,85.970115 C 66.634158,87.045855 66.802538,89.250195 65.471538,89.607915 C 59.146268,89.391315 55.838908,89.091595 53.640208,89.505775 C 52.468678,91.032185 52.090738,91.627955 50.316638,93.006025 C 51.644778,94.070165 51.336218,95.970855 50.318368,95.674755 C 49.500868,95.436945 48.448518,96.195555 48.055118,96.832095 C 47.534548,97.674385 48.552158,97.823275 51.793238,97.379035 C 55.303628,96.897875 56.871908,97.195315 59.199498,98.783665 C 61.599028,100.42111 63.302008,100.7167 68.287518,100.3611 C 71.667368,100.12003 77.879608,97.344395 79.564408,96.349155 z"
     id="path2426"
     style="fill:#f08f00;fill-opacity:0.50196078" />
  <path
     d="M 53.653148,1.0414151 C 53.109399,1.0481251 52.616668,1.1232051 52.278148,1.2601651 C 51.601129,1.5340851 52.378148,1.7492951 54.028148,1.7289151 C 55.678139,1.7085351 56.251118,1.4824551 55.278148,1.2289151 C 54.791669,1.1021451 54.196898,1.0347051 53.653148,1.0414151 z M 50.371898,1.2289151 C 32.570189,5.9555651 18.550648,19.977115 13.778148,37.760165 C 13.971236,37.8143 14.192988,37.735896 14.465648,37.603915 C 19.324108,21.05515 32.246066,7.9339373 48.684398,2.8226651 C 49.50879,2.198361 50.11177,1.6442172 50.371898,1.2289151 z M 76.871898,4.2601651 C 74.220098,4.4955395 73.086873,6.6273213 73.403148,10.603915 C 73.578027,12.802673 73.674503,13.898043 74.090648,14.385165 C 73.957811,13.749958 73.879346,12.876271 73.778148,11.603915 C 73.440788,7.3622151 74.766338,5.2446252 77.809398,5.2601651 C 79.635238,5.2694951 82.099268,6.0346452 85.153148,7.5726651 C 87.535878,8.7726751 87.785748,8.7704752 87.278148,7.4476651 C 87.041228,6.8302751 87.002758,6.3254052 87.184398,6.0101651 C 98.385414,11.648459 107.233,21.234741 111.9344,32.947665 C 107.34283,20.785958 98.324139,10.80638 86.809398,5.0101651 C 86.627755,5.3254051 86.666228,5.8302751 86.903148,6.4476651 C 87.410745,7.7704751 87.160878,7.7726751 84.778148,6.5726651 C 81.724265,5.0346451 79.260238,4.2694951 77.434398,4.2601651 C 77.244207,4.2591939 77.048685,4.2444735 76.871898,4.2601651 z M 47.903148,6.1976651 C 47.804916,6.190672 47.712038,6.2043776 47.590648,6.2289151 C 47.007979,6.3466951 46.173168,6.8338951 45.278148,7.7289151 C 43.577167,9.4298877 43.415734,9.8862481 44.559398,9.9164151 C 44.800246,9.6125671 45.159326,9.2227342 45.653148,8.7289151 C 46.548168,7.8338951 47.382978,7.3466952 47.965648,7.2289151 C 48.087038,7.2043776 48.179916,7.190672 48.278148,7.1976651 C 48.509032,6.583188 48.349749,6.2294583 47.903148,6.1976651 z M 76.215648,9.5101651 C 76.205435,10.295683 75.824044,10.916415 75.371898,10.916415 C 75.216068,10.916415 75.061091,10.844589 74.934398,10.760165 C 74.921235,10.832876 74.903147,10.909361 74.903148,10.978915 C 74.903148,11.496455 75.288578,11.916415 75.746898,11.916415 C 76.205238,11.916415 76.590658,11.279715 76.590648,10.478915 C 76.590648,9.9946008 76.431813,9.6504515 76.215648,9.5101651 z M 78.278148,15.197665 C 78.000109,15.206412 77.520764,15.306977 76.778148,15.478915 C 76.147788,15.62486 75.650932,15.729655 75.278148,15.728915 C 74.802563,15.832885 74.34837,15.91339 73.934398,15.916415 C 72.782145,15.924835 71.042178,16.830455 70.059398,17.916415 C 69.076615,19.002375 67.509838,20.114755 66.559398,20.416415 C 65.420855,20.777765 64.911498,21.815685 65.090648,23.447665 C 65.325695,25.588925 64.971348,25.916415 62.403148,25.916415 C 61.569293,25.916415 60.931348,25.832483 60.528148,25.697665 C 60.514318,25.721248 60.512212,25.735386 60.496898,25.760165 C 60.018708,26.533895 60.787068,26.916416 62.778148,26.916415 C 65.346348,26.916415 65.700698,26.588926 65.465648,24.447665 C 65.286498,22.815685 65.795858,21.777766 66.934398,21.416415 C 67.884838,21.114755 69.451618,20.002376 70.434398,18.916415 C 71.417178,17.830455 73.157148,16.924836 74.309398,16.916415 C 75.461648,16.907995 77.078138,16.443455 77.903148,15.885165 C 78.605636,15.409784 78.741547,15.183087 78.278148,15.197665 z M 29.309398,19.510165 C 29.314243,19.571964 29.321543,19.62979 29.340648,19.697665 C 29.350106,19.649397 29.328786,19.580499 29.309398,19.510165 z M 96.090648,20.103915 C 95.783148,20.279095 97.548108,22.661796 100.3719,25.666415 C 103.48948,28.983645 104.90314,29.674906 104.90315,27.916415 C 104.90315,27.653915 104.7308,27.407806 104.46565,27.228915 C 104.27086,28.521689 102.88432,27.738749 99.996898,24.666415 C 98.171458,22.724079 96.85104,21.098104 96.184398,20.103915 C 96.1301,20.086279 96.116273,20.089318 96.090648,20.103915 z M 99.278148,21.010165 C 99.243568,21.03846 99.21273,21.12005 99.153148,21.228915 C 99.103494,21.319634 99.005134,21.381445 98.903148,21.416415 C 98.968643,21.585467 99.080914,21.732616 99.215648,21.885165 C 99.220552,21.84288 99.236343,21.801813 99.246898,21.760165 C 99.387246,21.206365 99.381889,20.92528 99.278148,21.010165 z M 87.840648,23.666415 C 87.945708,24.05485 88.132438,24.532604 88.434398,25.072665 C 88.399915,24.794218 88.31474,24.505202 88.153148,24.228915 C 88.033723,24.024725 87.931884,23.849459 87.840648,23.666415 z M 60.184398,24.041415 C 60.1091,24.053202 60.031848,24.118122 59.903148,24.197665 C 59.388329,24.515825 58.876888,26.179265 58.746898,27.885165 C 58.64061,29.280091 58.711919,30.143592 59.153148,30.760165 C 59.059311,30.259002 59.062334,29.666881 59.121898,28.885165 C 59.235639,27.392503 59.614839,25.940023 60.059398,25.385165 C 59.942666,25.213869 59.962501,25.018075 60.121898,24.760165 C 60.416221,24.283937 60.410291,24.006054 60.184398,24.041415 z M 101.9344,24.228915 C 101.92175,24.330398 101.9119,24.43718 101.8719,24.541415 C 101.64933,25.121424 101.76805,25.546557 102.1844,25.760165 C 102.20146,25.691525 102.21868,25.614944 102.2469,25.541415 C 102.43344,25.055292 102.29302,24.591739 101.9344,24.228915 z M 92.028148,24.385165 C 90.163855,24.620378 88.466311,27.378828 88.528148,27.947665 C 88.559991,28.240597 88.720241,28.514933 88.934398,28.791415 C 89.083017,27.971618 90.889601,25.265611 92.778148,25.385165 C 93.547018,25.851375 96.803068,27.221586 96.903148,26.103915 C 96.924961,25.86033 96.773534,25.516509 96.528148,25.135165 C 96.36278,26.188371 93.163733,24.846351 92.403148,24.385165 C 92.277979,24.377241 92.152434,24.369484 92.028148,24.385165 z M 77.465648,24.603915 C 77.366162,24.910584 77.622808,25.481135 78.246898,26.135165 C 78.929268,26.850265 80.316151,28.276375 80.746898,28.010165 C 80.894965,27.918655 81.025228,27.965131 81.153148,28.103915 C 81.055078,27.413968 80.737869,26.752734 80.371898,26.978915 C 79.941148,27.245126 78.554268,25.850265 77.871898,25.135165 C 77.702154,24.957277 77.583748,24.766793 77.465648,24.603915 z M 86.121898,28.291415 C 86.219129,28.699199 86.453808,29.274211 86.871898,30.041415 C 86.843373,29.802602 86.753306,29.483114 86.528148,29.072665 C 86.363389,28.772321 86.233728,28.533602 86.121898,28.291415 z M 96.496898,31.728915 C 96.583818,32.069423 96.665163,32.476142 96.746898,32.947665 C 97.208715,35.611866 94.651218,35.676245 92.621898,36.135165 C 90.85452,36.534846 89.485008,35.904625 88.340648,35.541415 C 86.723015,35.027997 85.154878,35.230635 85.621898,36.447665 C 85.775227,36.847239 85.900503,37.152636 85.996898,37.447665 C 85.529878,36.230635 87.098018,36.027996 88.715648,36.541415 C 89.860008,36.904625 91.229515,37.566095 92.996898,37.166415 C 95.026218,36.707495 97.583718,36.611866 97.121898,33.947665 C 96.935548,32.872623 96.717475,32.186245 96.496898,31.728915 z M 75.653148,32.135165 C 75.122422,32.102866 74.416931,32.225001 73.403148,32.447665 C 71.601485,32.843376 68.089368,33.321635 65.590648,33.478915 C 62.951995,33.644996 59.934398,34.143265 59.934398,34.822665 C 59.934389,35.466023 59.136258,36.572555 58.153148,37.291415 C 57.170059,38.010273 57.479648,38.956385 57.403148,39.447665 C 57.299789,40.111367 55.937238,39.503725 54.434398,40.822665 C 53.198289,41.907514 49.564648,45.063285 47.996898,47.885165 C 48.218842,48.075134 48.423825,48.266417 48.621898,48.478915 C 50.292688,45.764741 53.662763,42.856416 54.840648,41.822665 C 56.343488,40.503725 57.706038,41.111366 57.809398,40.447665 C 57.885898,39.956385 57.545058,39.010276 58.528148,38.291415 C 59.511258,37.572555 60.309388,36.466026 60.309398,35.822665 C 60.309398,35.143265 63.326998,34.644996 65.965648,34.478915 C 68.464368,34.321635 71.976488,33.843376 73.778148,33.447665 C 76.069461,32.944409 76.870898,33.041866 77.309398,34.010165 C 77.221733,33.866463 77.186493,33.731426 77.153148,33.603915 C 76.902977,32.647247 76.537691,32.188996 75.653148,32.135165 z M 77.309398,34.010165 C 77.388265,34.18432 77.467131,34.370581 77.528148,34.603915 C 77.794908,35.624005 79.902028,37.240736 82.215648,38.197665 C 87.144026,40.236067 86.793323,39.4896 86.090648,37.697665 C 86.345723,38.688114 85.727073,38.80511 81.840648,37.197665 C 79.816228,36.360353 77.923053,35.016081 77.309398,34.010165 z M 104.77815,34.635165 C 104.74612,36.076502 108.87805,39.732112 110.8719,39.916415 C 111.01999,39.930104 111.11071,40.023959 111.21565,40.135165 C 111.12287,39.406639 110.92011,38.955536 110.4969,38.916415 C 108.86833,38.765879 105.81996,36.316734 104.77815,34.635165 z M 97.059398,38.603915 C 97.032931,38.637369 96.996898,38.666729 96.996898,38.728915 C 96.996898,39.474825 106.93841,54.182946 108.4969,55.822665 C 108.70208,56.038545 109.56485,55.643396 110.40315,54.947665 C 110.92639,54.513418 111.30166,54.309279 111.5594,54.322665 C 111.69164,53.169354 111.19755,52.97715 110.02815,53.947665 C 109.18985,54.643396 108.32708,55.038545 108.1219,54.822665 C 106.75822,53.387911 98.981009,41.938698 97.059398,38.603915 z M 102.90315,44.978915 C 102.94667,45.114038 102.99144,45.249473 103.02815,45.385165 C 103.04219,45.396164 103.04555,45.405526 103.0594,45.416415 C 103.00363,45.273713 102.96531,45.120191 102.90315,44.978915 z M 12.028148,49.478915 C 12.010058,50.040436 11.996898,50.600525 11.996898,51.166415 C 11.996898,57.692922 13.193587,63.918039 15.403148,69.666415 C 13.435922,64.203335 12.371898,58.307327 12.371898,52.166415 C 12.371898,51.600525 12.385058,51.040436 12.403148,50.478915 C 13.254958,50.685745 13.926258,51.010726 14.215648,51.416415 C 14.799501,52.234908 15.571127,53.86465 16.215648,55.478915 C 15.536714,53.574912 14.54769,51.407603 13.840648,50.416415 C 13.551258,50.010726 12.879958,49.685745 12.028148,49.478915 z M 49.684398,50.447665 C 49.899783,51.664146 49.479863,53.258156 47.871898,55.416415 C 47.978298,56.304496 48.223624,57.012082 48.528148,57.635165 C 48.419251,57.26303 48.331798,56.864213 48.278148,56.416415 C 50.38616,53.586977 50.407539,51.780524 49.684398,50.447665 z M 16.996898,57.572665 C 17.64522,59.398037 18.513857,60.94289 18.996898,61.103915 C 19.259158,61.191335 19.530886,61.563041 19.778148,62.072665 C 19.479766,61.060586 19.035536,60.241794 18.621898,60.103915 C 18.231191,59.97367 17.570112,58.928006 16.996898,57.572665 z M 20.371898,63.916415 C 20.630078,65.349545 23.478078,68.824956 27.059398,72.072665 C 29.97386,74.715644 31.47111,76.214631 32.090648,77.260165 C 32.098774,76.177569 30.686803,74.702245 26.684398,71.072665 C 23.760127,68.420795 21.307627,65.636117 20.371898,63.916415 z M 78.996898,69.635165 C 79.176842,70.92198 78.582475,72.525956 77.903148,73.853915 C 78.155381,74.022296 78.331443,74.170087 78.528148,74.322665 C 79.285989,72.715057 79.812958,70.867926 78.996898,69.635165 z M 107.90315,74.197665 C 106.14944,74.442953 100.83878,82.179535 101.52815,84.541415 C 101.55655,84.638731 101.67076,84.791072 101.84065,84.978915 C 101.92428,82.148161 106.6449,75.426107 108.27815,75.197665 C 108.45957,75.172295 108.58928,75.235566 108.6844,75.385165 C 108.7023,75.413309 108.88125,75.474533 109.15315,75.541415 C 109.29812,75.271443 109.45033,75.001641 109.59065,74.728915 C 108.89113,74.548943 108.34178,74.436075 108.3094,74.385165 C 108.21428,74.235563 108.08457,74.172295 107.90315,74.197665 z M 82.246898,79.947665 C 82.745342,81.774551 82.266812,83.374493 80.559398,85.103915 C 79.45599,86.221534 80.301779,88.782893 80.840648,90.103915 C 80.396954,88.734517 80.08357,86.965705 80.934398,86.103915 C 82.950002,84.06233 83.253352,82.222651 82.246898,79.947665 z"
     id="path3286"
     style="fill:#e9e9e9;fill-opacity:0.58064515" />
  <path
     d="M 54.017058,2.0401751 C 53.473308,2.0468851 52.980578,2.1219651 52.642058,2.2589251 C 51.965038,2.5328451 52.742058,2.7480551 54.392058,2.7276751 C 56.042048,2.7072951 56.615028,2.4812151 55.642058,2.2276751 C 55.155578,2.1009051 54.560808,2.0334651 54.017058,2.0401751 z M 50.735808,2.2276751 C 32.934098,6.9543251 18.914558,20.975875 14.142058,38.758925 C 15.026198,39.006805 16.800138,37.326345 18.954558,33.508925 C 20.636528,30.528655 22.656818,27.545985 23.454558,26.883925 C 24.252298,26.221865 24.892058,25.047825 24.892058,24.290175 C 24.892048,23.532515 25.342058,22.915175 25.892058,22.915175 C 26.442048,22.915175 26.892058,22.254155 26.892058,21.446425 C 26.892048,20.487495 27.493018,20.216985 28.579558,20.633925 C 29.698448,21.063285 30.003238,20.889325 29.517058,20.102675 C 29.119378,19.459215 29.278348,18.915175 29.860808,18.915175 C 30.443258,18.915175 30.779558,18.390175 30.642058,17.727675 C 30.504548,17.065155 30.870978,16.502665 31.454558,16.477675 C 32.038148,16.452665 33.929228,14.834735 35.642058,12.883925 C 37.354888,10.933125 41.472318,8.0081251 44.798308,6.3839251 C 48.019738,4.8107951 50.147858,3.1663551 50.735808,2.2276751 z M 77.798308,5.2589251 C 74.755248,5.2433851 73.429698,7.3609751 73.767058,11.602675 C 74.108288,15.892935 74.245618,16.061455 76.767058,15.477675 C 78.747368,15.019175 79.016038,15.123315 77.892058,15.883925 C 77.067048,16.442215 75.450558,16.906755 74.298308,16.915175 C 73.146058,16.923595 71.406088,17.829215 70.423308,18.915175 C 69.440528,20.001135 67.873748,21.113515 66.923308,21.415175 C 65.784768,21.776525 65.275408,22.814445 65.454558,24.446425 C 65.689608,26.587685 65.335258,26.915175 62.767058,26.915175 C 60.775978,26.915175 60.007618,26.532655 60.485808,25.758925 C 60.878238,25.123955 60.781858,24.878255 60.267058,25.196425 C 59.752238,25.514585 59.240798,27.178025 59.110808,28.883925 C 58.925798,31.311995 59.366728,32.164645 61.142058,32.821425 C 63.776908,33.796185 66.503098,32.119485 66.503098,30.163905 C 66.503088,29.407615 67.022258,28.484495 67.908078,28.182465 C 68.480948,27.987135 69.406238,27.031095 69.793228,26.141065 C 72.823618,26.223085 73.673588,22.822195 75.704558,26.303655 C 76.485958,25.187875 76.755158,26.399465 78.482638,28.126945 C 80.993068,30.637375 81.579558,31.391285 81.579558,29.477675 C 81.579568,28.676865 81.165918,27.737635 80.735178,28.003845 C 80.304428,28.270055 78.943078,26.852245 78.260708,26.137145 C 76.724488,24.527225 77.274428,23.368505 80.432238,25.620535 C 81.567418,26.430105 83.292248,28.307395 84.579558,29.696425 C 86.855328,32.152005 87.895618,31.900855 86.892058,30.071425 C 85.051038,26.715375 86.689578,27.144065 87.892058,27.915175 C 88.355028,28.212065 89.329758,26.608995 88.534918,25.249995 C 86.416778,21.628455 88.856448,21.390845 91.454558,22.477675 C 90.945238,19.443135 97.028028,24.584295 96.892058,26.102675 C 96.791978,27.220345 93.548798,25.861075 92.779928,25.394865 C 90.777228,25.268085 88.826098,28.339665 88.892058,28.946425 C 89.041888,30.324715 91.453418,31.710235 93.834018,31.321425 C 95.547358,31.041585 96.405308,29.876435 97.110808,33.946425 C 97.572628,36.610625 95.019588,36.692865 92.990268,37.151785 C 91.222888,37.551465 89.862308,36.916775 88.717948,36.553565 C 87.100318,36.040145 85.532178,36.242785 85.999198,37.459815 C 86.765848,39.457685 87.386458,40.339685 82.204558,38.196425 C 79.890938,37.239495 77.783818,35.622765 77.517058,34.602675 C 77.116788,33.072005 76.470478,32.852655 73.767058,33.446425 C 71.965398,33.842135 68.453278,34.320395 65.954558,34.477675 C 63.315908,34.643755 60.320628,35.146485 60.320628,35.825885 C 60.320618,36.469245 59.522488,37.575775 58.539378,38.294635 C 57.556288,39.013495 57.871638,39.953875 57.795138,40.445155 C 57.691778,41.108855 56.330498,40.498675 54.827658,41.817615 C 53.591548,42.902465 49.947748,46.062045 48.379998,48.883925 C 50.065058,50.326225 51.317048,52.315025 48.265158,56.411365 C 48.775878,60.674155 52.014428,61.126775 53.704558,65.040175 C 55.439518,66.257515 57.055678,67.392995 58.454558,68.946425 C 60.264938,68.890145 64.643428,66.001425 66.204558,69.665175 C 68.200808,66.838135 72.065888,65.089095 74.579558,68.290175 C 80.922758,67.973325 79.716288,72.019695 78.267058,74.852675 C 79.768528,75.854995 80.141248,76.476785 81.110808,77.915175 C 83.328898,81.205845 83.504388,83.488325 80.923308,86.102675 C 79.684478,87.357465 80.953528,90.531015 81.423308,91.602675 C 82.347198,93.710245 81.702348,94.452225 81.874198,95.919635 C 82.037368,97.313085 85.909868,95.813115 89.767058,93.156245 C 94.100898,90.171045 97.247168,86.772975 97.267058,85.549105 C 97.276558,84.964495 99.901168,82.714785 101.48135,81.200885 C 103.4541,79.310855 103.49756,77.173715 103.90992,74.165175 C 104.24022,71.755315 106.18468,67.104855 108.1242,63.388385 C 112.0266,55.910715 113.06498,52.728105 110.39206,54.946425 C 109.55376,55.642155 108.69099,56.037305 108.48581,55.821425 C 106.92732,54.181705 96.999198,39.486975 96.999198,38.741065 C 96.999198,37.538795 102.18192,41.842465 103.41139,46.386565 C 105.30376,47.868635 105.43,48.337425 106.32036,50.658195 C 107.02505,52.495005 107.49129,52.932535 109.07448,50.788275 C 112.04473,46.765405 113.21885,39.396745 110.86081,39.915175 C 108.74688,40.379935 104.07831,35.472865 104.88191,34.340615 C 105.22173,33.861815 106.58117,35.462855 107.42331,36.665175 C 108.84831,38.699655 108.8508,38.353665 110.60827,36.848865 C 111.38356,36.185045 112.381,36.069215 112.82956,35.321425 C 108.41626,22.534525 99.121058,12.023105 87.173308,6.0089251 C 86.991668,6.3241651 87.030138,6.8290351 87.267058,7.4464251 C 87.774658,8.7692351 87.524788,8.7714351 85.142058,7.5714251 C 82.088178,6.0334051 79.624148,5.2682551 77.798308,5.2589251 z M 47.954558,7.2276751 C 47.371888,7.3454551 46.537078,7.8326551 45.642058,8.7276751 C 43.878408,10.491315 43.762598,10.915175 45.048308,10.915175 C 45.928178,10.915175 47.227588,10.253475 47.923308,9.4151751 C 49.211238,7.8633251 48.925678,7.0313751 47.954558,7.2276751 z M 75.892058,9.4464251 C 76.270888,9.3486551 76.579558,9.7769651 76.579558,10.477675 C 76.579568,11.278475 76.194148,11.915175 75.735808,11.915175 C 75.277488,11.915175 74.892058,11.495215 74.892058,10.977675 C 74.892048,10.460135 75.277478,9.8234351 75.735808,9.5401751 C 75.793098,9.5047651 75.837938,9.4603951 75.892058,9.4464251 z M 96.079558,20.102675 C 96.182058,20.044285 96.506828,20.238445 97.110808,20.727675 C 97.987908,21.438125 98.903718,21.663125 99.142058,21.227675 C 99.380388,20.792215 99.422938,21.020525 99.235808,21.758925 C 99.048678,22.497325 99.765348,23.355625 100.82956,23.633925 C 101.98086,23.934995 102.5558,24.706295 102.23581,25.540175 C 101.91208,26.383825 102.33094,26.915175 103.29831,26.915175 C 104.18216,26.915175 104.89206,27.365175 104.89206,27.915175 C 104.89205,29.673665 103.47839,28.982405 100.36081,25.665175 C 97.537018,22.660555 95.772058,20.277855 96.079558,20.102675 z M 12.392058,50.477675 C 12.373968,51.039195 12.360808,51.599285 12.360808,52.165175 C 12.360808,66.705185 18.367918,79.839295 28.048308,89.227675 C 28.588728,89.047785 28.892058,88.616775 28.892058,87.915175 C 28.892048,87.365175 29.617108,86.915175 30.485808,86.915175 C 31.725248,86.915175 31.916188,86.270235 31.392058,83.883925 C 30.970238,81.963445 31.204088,80.269745 32.017058,79.290175 C 33.118108,77.963485 32.384848,76.910865 27.048308,72.071425 C 23.466988,68.823715 20.618988,65.348305 20.360808,63.915175 C 20.113428,62.542005 19.510328,61.277515 18.985808,61.102675 C 18.461298,60.927825 17.488748,59.129655 16.829558,57.102675 C 16.170368,55.075695 14.989218,52.515175 14.204558,51.415175 C 13.915168,51.009485 13.243868,50.684505 12.392058,50.477675 z M 108.26706,75.196425 C 106.51335,75.441715 101.20269,83.178295 101.89206,85.540175 C 101.94034,85.705615 102.21361,86.036225 102.64206,86.415175 C 105.50361,83.190585 107.96435,79.595945 109.95456,75.727675 C 109.25504,75.547705 108.70569,75.434835 108.67331,75.383925 C 108.57819,75.234325 108.44848,75.171055 108.26706,75.196425 z"
     id="path2422"
     style="fill:#000000;fill-opacity:0.58064515" />
  <path
     d="M 99.35534,23.617409 C 99.35534,36.100239 83.52622,46.219569 64,46.219569 C 44.47378,46.219569 28.64466,36.100239 28.64466,23.617409 C 28.64466,11.134579 44.47378,1.0152493 64,1.0152493 C 83.52622,1.0152493 99.35534,11.134579 99.35534,23.617409 z"
     id="path3200"
     style="fill:url(#radialGradient3362)" />
</svg>