<?xml version="1.0" encoding="UTF-8" standalone="no"?>
<!-- Created with Inkscape (http://www.inkscape.org/) -->
<svg
   xmlns:dc="http://purl.org/dc/elements/1.1/"
   xmlns:cc="http://web.resource.org/cc/"
   xmlns:rdf="http://www.w3.org/1999/02/22-rdf-syntax-ns#"
   xmlns:svg="http://www.w3.org/2000/svg"
   xmlns="http://www.w3.org/2000/svg"
   xmlns:sodipodi="http://sodipodi.sourceforge.net/DTD/sodipodi-0.dtd"
   xmlns:inkscape="http://www.inkscape.org/namespaces/inkscape"
   width="2011.9062"
   height="1996.0938"
   id="svg2"
   sodipodi:version="0.32"
   inkscape:version="0.45"
   sodipodi:docbase="/home/mehmet/Downloads"
   sodipodi:docname="earth.svg"
   inkscape:output_extension="org.inkscape.output.svg.inkscape"
   version="1.0"
   sodipodi:modified="true">
  <defs
     id="defs4">
    <filter
       inkscape:collect="always"
       id="filter6184">
      <feGaussianBlur
         inkscape:collect="always"
         stdDeviation="0.45818512"
         id="feGaussianBlur6186" />
    </filter>
    <filter
       inkscape:collect="always"
       id="filter10161">
      <feGaussianBlur
         inkscape:collect="always"
         stdDeviation="4.6280572"
         id="feGaussianBlur10163" />
    </filter>
    <filter
       inkscape:collect="always"
       id="filter11134">
      <feGaussianBlur
         inkscape:collect="always"
         stdDeviation="9.995"
         id="feGaussianBlur11136" />
    </filter>
    <filter
       inkscape:collect="always"
       id="filter11138">
      <feGaussianBlur
         inkscape:collect="always"
         stdDeviation="9.9083909"
         id="feGaussianBlur11140" />
    </filter>
  </defs>
  <sodipodi:namedview
     id="base"
     pagecolor="#ffffff"
     bordercolor="#666666"
     borderopacity="1.0"
     gridtolerance="10000"
     guidetolerance="10"
     objecttolerance="10"
     inkscape:pageopacity="0.0"
     inkscape:pageshadow="2"
     inkscape:zoom="0.25321885"
     inkscape:cx="1308.0707"
     inkscape:cy="884.18566"
     inkscape:document-units="px"
     inkscape:current-layer="layer1"
     showguides="true"
     inkscape:guide-bbox="true"
     inkscape:window-width="1280"
     inkscape:window-height="755"
     inkscape:window-x="0"
     inkscape:window-y="24">
    <sodipodi:guide
       orientation="horizontal"
       position="1552.0172"
       id="guide3192" />
    <sodipodi:guide
       orientation="horizontal"
       position="-414.22228"
       id="guide3194" />
    <sodipodi:guide
       orientation="vertical"
       position="-263.27687"
       id="guide3196" />
    <sodipodi:guide
       orientation="vertical"
       position="1711.8847"
       id="guide3198" />
  </sodipodi:namedview>
  <metadata
     id="metadata7">
    <rdf:RDF>
      <cc:Work
         rdf:about="">
        <dc:format>image/svg+xml</dc:format>
        <dc:type
           rdf:resource="http://purl.org/dc/dcmitype/StillImage" />
      </cc:Work>
    </rdf:RDF>
  </metadata>
  <g
     inkscape:label="Layer 1"
     inkscape:groupmode="layer"
     id="layer1"
     transform="translate(279.3125,518.3125)">
    <g
       id="g11142">
      <path
         id="path4190"
         d="M 726.65625,-508.3125 C 177.03425,-508.3125 -269.3125,-65.587325 -269.3125,479.75 C -269.3125,1025.0873 177.03458,1467.7812 726.65625,1467.7812 C 1276.2779,1467.7812 1722.5938,1025.0869 1722.5938,479.75 C 1722.5938,-65.586997 1276.2783,-508.3125 726.65625,-508.3125 z "
         style="opacity:1;fill:#191c63;fill-opacity:1;fill-rule:nonzero;stroke:#000000;stroke-width:20;stroke-linecap:round;stroke-linejoin:round;stroke-miterlimit:4;stroke-dasharray:none;stroke-dashoffset:0;stroke-opacity:1;filter:url(#filter11134)" />
      <path
         id="path3200"
         d="M 1713.9324,479.73499 C 1713.9324,1020.3582 1271.6273,1459.1249 726.64417,1459.1249 C 181.66104,1459.1249 -260.6441,1020.3582 -260.6441,479.73499 C -260.6441,-60.888269 181.66104,-499.65497 726.64417,-499.65497 C 1271.6273,-499.65497 1713.9324,-60.888269 1713.9324,479.73499 z "
         style="fill:none;fill-opacity:1;fill-rule:nonzero;stroke:#000000;stroke-width:15;stroke-linecap:round;stroke-linejoin:round;stroke-miterlimit:4;stroke-dashoffset:0;stroke-opacity:1;filter:url(#filter11138)" />
      <g
         style="fill:#1c5739;fill-opacity:1;filter:url(#filter10161)"
         id="g8215">
        <path
           style="fill:#1c5739;fill-opacity:1;fill-rule:evenodd;stroke:none;stroke-width:1;stroke-linecap:butt;stroke-linejoin:miter;stroke-miterlimit:4;stroke-dasharray:none;stroke-opacity:1;filter:url(#filter6184)"
           d="M 434.76438,-369.983 C 412.66947,-368.89427 385.74938,-370.50306 353.6361,-329.93892 C 331.55668,-302.04912 336.34433,-304.19629 320.87275,-284.6943 C 305.40117,-265.19231 302.54088,-264.93228 291.74978,-251.93095 C 280.95868,-238.92962 281.60875,-248.29058 277.70835,-232.68899 C 273.80795,-217.0874 271.16159,-196.28157 277.1883,-186.92431 C 285.9831,-173.26922 310.86173,-202.91595 326.59334,-215.52724 C 342.32495,-228.13853 329.71366,-225.01821 340.11472,-237.36947 C 353.26714,-252.98797 374.30821,-248.29058 393.16013,-262.85207 C 412.01205,-277.41355 410.06185,-282.61408 415.52241,-295.61541 C 420.98297,-308.61674 407.98164,-303.93626 415.00236,-314.85738 C 422.02308,-325.7785 443.39983,-335.26786 443.60528,-339.29987 C 443.71114,-341.37738 440.20439,-370.25106 434.76438,-369.983 z "
           id="path4208"
           sodipodi:nodetypes="cssssssssssss" />
        <path
           style="fill:#1c5739;fill-opacity:1;fill-rule:evenodd;stroke:#000000;stroke-width:2;stroke-linecap:butt;stroke-linejoin:miter;stroke-miterlimit:4;stroke-opacity:1"
           d="M 776.375,-462.28125 C 775.76172,-462.28754 775.1555,-462.27079 774.53125,-462.25 C 770.36958,-462.11141 766.08164,-461.3876 762.90625,-460.59375 C 757.23806,-459.17669 751.04528,-459.66757 745.375,-458.25 C 739.78995,-456.85373 733.11698,-458.41987 727.8125,-457.09375 C 722.35898,-455.73037 715.08226,-455.4005 709.09375,-452.40625 C 703.92734,-449.82307 698.66209,-448.04834 692.71875,-446.5625 C 685.32003,-444.71281 682.32784,-439.60142 677.5,-437.1875 C 672.58283,-434.72892 667.34615,-432.3131 663.46875,-431.34375 C 657.08853,-429.74869 651.47529,-427.12827 645.90625,-424.34375 C 639.6522,-421.21673 634.92047,-420.18188 633.03125,-412.625 C 631.65274,-407.11094 631.875,-399.9018 631.875,-395.0625 C 631.875,-388.71678 620.0053,-390.72523 616.65625,-391.5625 C 611.12164,-392.94614 602.86788,-391.63884 597.9375,-390.40625 C 591.43064,-388.77954 586.83507,-381.0764 585.0625,-377.53125 C 582.28898,-371.98414 584.94458,-364.8921 587.40625,-359.96875 C 589.70558,-355.3701 587.31756,-343.30148 586.21875,-338.90625 C 584.18154,-330.75749 579.58758,-329.93132 575.6875,-326.03125 C 573.37461,-323.71833 561.588,-322.53125 556.96875,-322.53125 C 551.00113,-322.53124 544.27814,-319.10782 539.4375,-316.6875 C 532.65092,-313.29422 526.39244,-310.41151 520.71875,-306.15625 C 516.24799,-302.80317 509.38039,-300.5027 504.3125,-297.96875 C 497.84862,-294.7368 492.75669,-292.20814 487.9375,-288.59375 C 482.36104,-284.41141 475.92488,-280.08112 471.5625,-275.71875 C 466.13642,-270.29267 463.39582,-269.9479 459.84375,-262.84375 C 457.03198,-257.22017 456.01388,-250.19447 457.53125,-244.125 C 459.13536,-237.70861 457.53751,-227.87504 456.34375,-221.90625 C 454.5143,-212.75904 453.81604,-211.55895 459.84375,-205.53125 C 466.0966,-199.27841 466.73341,-190.56444 470.375,-183.28125 C 472.96426,-178.10276 471.5625,-170.35104 471.5625,-164.5625 C 471.56249,-158.12759 474.49194,-156.9607 468.0625,-150.53125 C 462.26993,-144.7387 462.67674,-140.66701 466.875,-136.46875 C 472.06638,-131.27736 473.10864,-125.22022 476.25,-118.9375 C 478.19373,-115.05002 469.67043,-105.74713 468.0625,-102.53125 C 465.34514,-97.096561 458.87751,-93.567524 456.34375,-88.5 C 453.46886,-82.75023 445.72913,-76.729131 441.125,-72.125 C 436.61365,-67.613662 430.79695,-60.302178 428.25,-56.90625 C 423.73923,-50.891866 419.08019,-43.048938 414.21875,-38.1875 C 409.25913,-33.227885 404.41085,-29.10295 401.34375,-22.96875 C 398.38561,-17.052491 392.0668,-13.658396 387.3125,-11.28125 C 382.96922,-9.1096139 377.69656,-2.7516621 374.4375,1.59375 C 369.62449,8.0110887 370.95284,12.155686 373.28125,16.8125 C 373.37883,17.007658 373.48378,17.184413 373.59375,17.375 C 369.09558,20.902937 362.35781,24.204686 358.0625,28.5 C 353.67078,32.89172 348.44478,35.652607 344,37.875 C 339.87568,39.93716 336.41851,44.268985 333.46875,47.21875 C 329.24498,51.442518 325.36816,54.19434 320.625,58.9375 C 315.59701,63.965489 311.56941,70.336844 307.75,74.15625 C 303.76152,78.144718 297.63577,86.582981 293.6875,90.53125 C 289.73874,94.480012 287.80329,99.955931 285.5,104.5625 C 282.31904,110.92446 278.39512,116.44916 273.8125,124.46875 C 270.63633,130.02704 268.28434,135.35165 265.625,142 C 263.68797,146.84261 261.25469,153.40156 257.4375,157.21875 C 253.65759,160.99867 252.66576,165.57473 250.40625,170.09375 C 247.63238,175.64148 246.86679,178.28946 243.375,181.78125 C 239.26606,185.89019 237.60987,189.71677 236.375,194.65625 C 235.04596,199.97235 230.93977,205.83466 229.34375,212.21875 C 228.01173,217.54682 223.23648,224.43329 221.15625,228.59375 C 218.20358,234.49909 217.03855,236.90828 215.3125,243.8125 C 214.03686,248.91499 215.3125,256.08435 215.3125,261.375 C 215.31249,269.10445 215.75341,271.63184 218.8125,277.75 C 220.24487,280.61478 235.10525,276.04113 236.375,275.40625 C 242.05268,272.56742 247.12056,268.91517 253.90625,267.21875 C 260.06389,265.67934 267.36271,261.6624 272.625,259.03125 C 277.96172,256.36289 284.23775,254.11856 290.1875,249.65625 C 294.44278,246.4648 304.02923,243.84425 308.90625,242.625 C 316.54344,240.7157 323.5426,236.49433 329.96875,233.28125 C 335.69722,230.41702 342.07691,229.78125 348.6875,229.78125 C 354.22419,229.78125 366.87207,245.22383 372.09375,247.3125 C 374.60341,248.31637 371.73164,261.08279 372.09375,262.53125 C 373.33042,267.47795 379.125,275.40626 381.46875,280.09375 C 383.86926,284.89481 393.50576,290.22163 399,292.96875 C 404.76168,295.84958 406.5805,297.018 410.71875,301.15625 C 418.84927,309.28675 427.06092,314.866 435.28125,321.03125 C 442.34824,326.33148 447.85834,330.4875 454,335.09375 C 462.28535,341.30776 468.32143,350.25445 470.375,358.46875 C 471.96932,364.84597 472.56411,367.16266 473.90625,372.53125 C 475.25682,377.93353 477.52642,382.29318 478.59375,386.5625 C 480.31584,393.45091 489.05203,399.97914 494.96875,402.9375 C 501.37446,406.14035 504.41873,408.88748 507.84375,412.3125 C 512.24453,416.71329 514.47127,432.97882 516.03125,439.21875 C 517.43824,444.84658 519.85098,450.19714 523.03125,454.4375 C 527.65383,460.60096 527.44224,468.45649 528.90625,474.3125 C 530.06033,478.92881 532.09347,482.19162 535.9375,484.28125 C 535.9325,484.46825 535.90625,484.65795 535.90625,484.84375 C 535.90628,490.45356 544.45453,494.54828 547.625,497.71875 C 553.22417,503.31794 557.6719,509.62505 560.5,515.28125 C 562.88323,520.04767 564.84534,525.6626 566.34375,531.65625 C 567.69623,537.06622 570.50643,544.70037 573.34375,550.375 C 576.86852,557.42455 579.14492,560.44323 583.875,566.75 C 587.31406,571.33539 587.79994,579.28737 590.90625,585.5 C 594.12662,591.94076 595.1347,593.07003 596.75,599.53125 C 598.17773,605.24226 596.62545,612.62409 594.40625,617.0625 C 592.5571,620.76084 582.63963,622.9375 578.03125,622.9375 C 572.00025,622.93751 569.11135,619.86135 565.15625,615.90625 C 561.32337,612.07332 560.39991,606.36231 558.15625,601.875 C 554.90369,595.36986 551.96294,590.8985 548.78125,586.65625 C 544.12674,580.45021 541.15205,578.02239 533.5625,576.125 C 530.13356,575.26774 526.26789,566.82155 525.375,563.25 C 524.02536,557.85137 521.91442,552.81394 520.71875,548.03125 C 518.98248,541.08608 514.23464,539.99616 509,538.6875 C 501.71162,536.8654 498.02798,534.27471 494.96875,528.15625 C 492.21172,522.64217 490.83709,515.64738 487.9375,511.78125 C 484.642,507.38727 484.35864,499.76197 483.25,494.21875 C 482.19353,488.93647 482.09375,484.2538 482.09375,477.84375 C 482.09376,474.41173 472.82723,467.96417 470.375,466.125 C 466.59292,463.28842 462.89729,456.30354 459.84375,453.25 C 455.95024,449.35649 451.50538,442.59778 447,439.21875 C 442.92474,436.1623 438.85266,428.91064 437.625,424 C 436.66296,420.15181 426.74777,411.93527 423.59375,408.78125 C 418.6577,403.84523 416.11574,398.06057 411.875,392.40625 C 407.88376,387.08459 405.54183,382.05241 402.53125,376.03125 C 399.53897,370.04671 395.00388,366.82026 392,360.8125 C 389.68812,356.18876 388.25027,348.68806 386.125,344.4375 C 384.09126,340.37006 384.96875,330.28971 384.96875,325.71875 C 384.96875,319.35213 382.72876,315.54004 381.46875,310.5 C 380.15926,305.26209 377.20574,301.72921 375.59375,295.28125 C 374.29299,290.07818 372.12387,284.78012 368.59375,281.25 C 364.23792,276.89415 359.89157,276.5625 353.375,276.5625 C 345.18262,276.56249 341.29013,279.69868 335.8125,282.4375 C 331.90955,284.38899 325.49084,291.63186 320.625,295.28125 C 317.43658,297.67255 307.4495,298.35338 304.21875,299.96875 C 296.31907,303.91861 293.32335,310.11957 285.5,314.03125 C 280.47398,316.54427 278.76368,320.39502 271.46875,322.21875 C 264.81791,323.88147 259.72736,326.92889 255.09375,331.5625 C 250.98344,335.67282 245.60167,339.85344 241.03125,343.28125 C 236.58272,346.61765 228.60973,347.84757 223.5,349.125 C 217.80503,350.54875 212.87767,360.15269 210.625,363.15625 C 205.72176,369.69389 203.59375,371.43424 203.59375,379.53125 C 203.59375,384.39981 194.09838,390.21411 191.90625,392.40625 C 187.68195,396.63053 179.17358,401.44098 173.1875,402.9375 C 167.45852,404.36975 163.07889,408.39434 156.78125,409.96875 C 149.30819,411.83701 148.71007,417.63716 147.4375,424 C 145.79932,432.19095 145.11943,433.34932 140.40625,438.0625 C 135.4829,442.98585 130.28044,443.50081 126.375,447.40625 C 122.18947,451.59178 123.00176,459.71171 121.6875,464.96875 C 121.05074,467.5158 111.15438,477.06498 108.8125,480.1875 C 106.21067,483.65661 106.46875,492.99271 106.46875,497.71875 C 106.46875,503.16269 101.22454,509.42592 99.46875,512.9375 C 96.761656,518.35168 96.404758,521.40924 93.625,526.96875 C 91.025388,532.16794 90.09375,536.7532 90.09375,543.375 C 90.09375,550.23798 95.429887,555.20352 98.28125,560.90625 C 100.61852,565.58075 101.93624,570.40499 105.3125,573.78125 C 108.64824,577.117 120.02599,576.125 125.1875,576.125 C 133.51823,576.12497 138.54039,575.41538 143.9375,580.8125 C 149.31273,586.18769 147.8037,592.8662 152.125,597.1875 C 155.96907,601.03155 156.67676,606.05078 157.96875,611.21875 C 159.84615,618.72837 160.37516,621.71867 167.3125,618.25 C 169.7278,617.04236 173.68544,602.16448 174.34375,599.53125 C 176.38486,591.36684 181.28065,587.93822 187.21875,580.8125 C 192.85822,574.0451 198.91858,571.44696 205.9375,567.9375 C 212.29931,564.75659 220.83946,567.55362 227,569.09375 C 236.28021,571.41382 235.6679,573.80067 239.875,580.8125 C 243.5345,586.91166 243.375,593.61339 243.375,599.53125 C 243.375,611.79919 251.30117,603.24413 252.75,596 C 255.26023,583.44883 258.8631,599.76934 265.625,606.53125 C 269.80555,610.71177 275.42446,615.30553 278.5,619.40625 C 282.40995,624.61954 284.86013,628.11013 289.03125,632.28125 C 293.08037,636.33036 302.13766,640.36105 305.40625,642.8125 C 310.41772,646.57111 310.09375,649.4299 310.09375,656.875 C 310.09373,662.88548 311.25,670.04315 311.25,676.75 C 311.25,683.61661 303.43081,683.59709 298.375,686.125 C 292.82085,688.90206 288.99899,692.49475 288.8125,697.5 C 286.34279,695.4775 284.35285,693.13411 280.84375,689.625 C 276.98648,685.76772 271.78192,677.94018 270.3125,672.0625 C 269.02486,666.91189 262.93484,664.96027 258.59375,663.875 C 252.74676,662.41327 252.51361,653.4118 251.5625,648.65625 C 250.18689,641.7782 245.59666,641.65625 238.71875,641.65625 C 231.3245,641.65624 226.97203,636.95477 222.3125,634.625 C 215.42618,631.18186 213.06501,629.96925 207.125,628.78125 C 201.4929,627.65485 193.62067,628.62609 188.375,629.9375 C 181.31011,631.70375 177.72046,631.22528 173.1875,634.625 C 165.6726,640.2612 159.36598,645.20868 149.78125,642.8125 C 144.36643,641.4588 143.8585,633.21525 142.75,628.78125 C 140.74285,620.75263 144.39389,615.90625 134.5625,615.90625 C 124.6786,615.90623 115.8227,619.40625 105.3125,619.40625 C 95.120064,619.40627 84.626634,619.40625 73.71875,619.40625 C 68.020107,619.40627 62.747438,622.19006 58.5,626.4375 C 54.342014,630.59547 44.354992,632.28125 38.625,632.28125 C 33.897867,632.28124 24.186984,638.90651 21.0625,640.46875 C 6.5787415,647.71061 4.2869387,638.86307 -7.03125,625.28125 C -8.7968772,623.16246 -10.924801,621.35645 -12.875,619.40625 C -16.938973,615.3423 -22.566014,612.05898 -26.90625,607.71875 C -33.416624,601.20837 -36.77413,594.31962 -43.28125,587.8125 C -51.441009,579.65274 -61.28965,569.83535 -69.03125,562.09375 C -73.265149,557.85984 -77.601761,553.52324 -80.75,550.375 C -85.287606,545.83741 -86.547375,535.32563 -87.75,529.3125 C -89.37055,521.20976 -92.182924,516.64788 -93.625,509.4375 C -94.779502,503.66498 -97.944392,499.12868 -99.46875,493.03125 C -101.13015,486.38565 -105.04553,481.19287 -106.46875,475.5 C -108.10909,468.93863 -112.24718,462.8039 -114.65625,456.78125 C -117.76084,449.01976 -119.79257,441.08106 -122.875,433.375 C -125.65848,426.41631 -128.40118,419.36402 -129.875,413.46875 C -131.70992,406.12908 -135.31935,402.68452 -136.90625,394.75 C -138.28538,387.85429 -143.38093,380.53879 -145.09375,373.6875 C -146.71788,367.19102 -149.43203,363.33436 -150.9375,357.3125 C -152.9135,349.40851 -153.62103,347.00099 -159.125,345.625 C -161.35165,345.06833 -166.73791,359.70166 -167.3125,362 C -170.07226,373.0391 -172,364.5209 -172,357.3125 C -172.00001,351.79249 -174.34375,347.6075 -174.34375,340.9375 C -174.34376,339.51857 -187.21875,353.1454 -187.21875,336.25 C -187.21874,332.54976 -189.82131,329.30851 -190.71875,325.71875 C -192.37354,319.09955 -198.19871,337.17866 -201.25,343.28125 C -203.75534,348.29191 -202.26244,355.75032 -201.25,360.8125 C -200.2972,365.57652 -194.66467,373.27282 -191.90625,376.03125 C -189.29659,378.6409 -190.73416,390.06337 -189.5625,394.75 C -188.52959,398.88158 -183.54915,404.43296 -181.375,408.78125 C -178.81859,413.89407 -177.84375,423.85226 -177.84375,429.84375 C -177.84375,437.4001 -177.23384,445.28338 -175.53125,452.09375 C -173.81036,458.97733 -175.53125,468.37474 -175.53125,475.5 C -175.53126,482.52073 -175.53125,489.54178 -175.53125,496.5625 C -175.53126,502.97707 -174.17961,508.68719 -175.53125,514.09375 C -176.92217,519.65742 -176.6875,527.30479 -176.6875,532.84375 C -176.68751,538.78253 -178.87523,545.37545 -181.375,550.375 C -184.43207,556.48918 -184.61811,560.97243 -186.0625,566.75 C -187.53285,572.63144 -188.12226,578.55152 -189.5625,584.3125 C -191.49253,592.03268 -189.84197,599.1964 -188.375,606.53125 C -187.04152,613.1986 -186.0625,619.31645 -186.0625,626.4375 C -186.06249,632.28808 -186.0625,638.1494 -186.0625,644 C -186.06249,650.24066 -186.0625,656.47811 -186.0625,662.71875 C -186.06249,670.52179 -190.62025,673.12026 -194.25,676.75 C -195.94491,678.44491 -197.10194,679.64924 -197.8125,680.84375 L -204.78125,679.09375 L -214.125,663.875 L -229.34375,629.9375 L -245.71875,624.09375 C -245.71875,624.09377 -177.26504,1263.5703 484.4375,1419.7812 L 471.5625,1394.0312 L 467.34375,1367.7188 C 473.9439,1364.7121 480.38679,1361.7441 482.875,1360.5 C 483.18619,1360.3443 494.63104,1370.0141 495.34375,1370.625 C 498.15226,1373.0324 502.52259,1372.8103 506.28125,1373.75 C 511.65229,1375.0927 514.60996,1373.2024 517.96875,1369.8438 C 521.28798,1366.5244 525.8153,1362.4361 529.6875,1360.5 C 533.6529,1358.5172 537.07198,1359.2323 541.375,1358.1562 C 545.22543,1357.1936 548.81823,1354.5298 553.0625,1353.4688 C 558.07674,1352.2152 561.7041,1348.3667 565.5625,1346.4375 C 569.51952,1344.4591 572.69091,1343.2796 577.25,1341 C 580.86293,1339.1936 585.74351,1339.4876 588.96875,1337.875 C 592.73136,1335.9937 597.35491,1335.2288 601.4375,1333.1875 C 605.63601,1331.0883 609.35561,1329.9569 612.375,1326.9375 C 615.89928,1323.4132 617.8125,1321.8804 617.8125,1316.8125 C 617.8125,1312.2937 621.26822,1311.5901 626.40625,1310.5625 C 630.70858,1309.7021 631.51226,1309.7812 636.53125,1309.7812 C 640.48506,1309.7813 639.41796,1304.3125 645.90625,1304.3125 C 652.40503,1304.3125 658.16896,1313.7283 662.28125,1316.8125 C 666.36802,1319.8776 656.71158,1325.8648 655.28125,1326.9375 C 651.59713,1329.7006 647.06065,1331.3365 642.78125,1332.4062 C 638.35598,1333.5126 634.32318,1333.9167 631.09375,1335.5312 C 626.69589,1337.7301 633.91591,1344.2421 635,1345.6875 C 637.08525,1348.4678 645.82006,1349.8405 649.03125,1351.125 C 653.88925,1353.0682 658.51892,1355.2451 663.84375,1357.375 C 664.83917,1357.7732 665.92864,1357.8965 666.96875,1358.1562 C 673.65732,1359.8283 681.28762,1362.7207 688.03125,1364.4062 C 693.69912,1365.8232 698.91057,1368.7447 704.40625,1369.8438 C 708.32185,1370.6268 713.05889,1370.625 716.90625,1370.625 C 724.8898,1370.6251 730.79689,1371.2636 738.75,1368.2812 C 745.09839,1365.9006 752.45629,1365.7218 759.03125,1364.4062 C 763.33415,1363.5457 767.25008,1362.8436 771.5,1362.8438 C 777.76127,1362.8438 782.79435,1361.5162 787.875,1360.5 C 792.29365,1359.6162 797.28983,1357.1498 801.15625,1354.25 C 804.26652,1351.9172 809.55582,1351.1656 812.84375,1350.3438 C 816.52165,1349.4243 821.52459,1346.8002 823.75,1345.6875 C 827.61837,1343.7533 831.93562,1342.0786 836.25,1341 C 840.89191,1339.8396 844.55282,1337.3534 847.15625,1334.75 C 849.99715,1331.9091 852.47951,1331.7705 855.75,1328.5 C 858.43613,1325.8138 862.01823,1324.0255 864.34375,1322.2812 C 867.27764,1320.0809 870.62233,1317.5489 873.6875,1315.25 C 876.81625,1312.9034 880.77009,1311.5263 884.625,1310.5625 C 889.87457,1309.2501 890.97865,1307.1991 893.1875,1302.7812 C 893.55178,1302.0527 893.54252,1301.1314 893.21875,1300.0938 C 894.63605,1299.8313 896.03591,1299.5365 897.46875,1299.25 C 903.34531,1298.0747 908.07801,1295.7501 915.03125,1295.75 C 923.34462,1295.75 929.58031,1292.9878 937.28125,1291.0625 C 944.00359,1289.382 948.36627,1286.41 950.125,1279.375 C 952.30839,1270.6414 957.63404,1266.0222 964.1875,1259.4688 C 967.19952,1256.4567 969.27514,1250.6005 967.6875,1244.25 C 965.99428,1237.4771 960.2644,1231.4803 951.3125,1233.7188 C 945.2192,1235.242 938.48398,1235.4612 932.59375,1238.4062 C 928.86068,1240.2727 922.24715,1245.7571 916.21875,1244.25 C 909.7661,1242.6368 910.34376,1238.0266 910.34375,1230.2188 C 910.34375,1224.149 911.53128,1219.0354 911.53125,1212.6562 C 911.53125,1204.0953 914.7736,1206.3632 920.875,1203.3125 C 924.69185,1201.4041 933.89579,1200.6775 936.09375,1196.2812 C 936.16058,1196.1475 942.0731,1179.9064 940.78125,1179.9062 C 935.62072,1179.9063 927.94802,1180.4792 924.40625,1182.25 C 921.81828,1183.544 914.05628,1192.7814 910.34375,1192.7812 C 904.97426,1192.7813 899.82238,1192.7919 895.15625,1195.125 C 891.03439,1197.1859 883.50642,1198.5577 878.75,1202.125 C 872.15044,1207.0746 865.33343,1207.1143 858.875,1210.3438 C 853.01482,1213.2739 850.18513,1213.5094 848.34375,1220.875 C 847.90275,1222.639 846.422,1235.6602 844.8125,1236.0625 C 839.88415,1237.2946 834.27619,1241.9062 830.78125,1241.9062 C 825.59627,1241.9062 817.86801,1244.1424 821.4375,1251.2812 C 824.70659,1257.8195 829.23243,1263.3706 831.96875,1268.8438 C 833.10652,1271.1193 833.93452,1272.9046 834.5,1274.5 C 834.04726,1274.8227 833.5725,1275.1328 833.125,1275.4688 C 830.1352,1277.7111 828.96115,1284.289 826.09375,1287.1562 C 822.71436,1290.5356 820.17382,1291.3038 815.96875,1293.4062 C 812.2661,1295.2575 805.391,1294.6913 801.15625,1295.75 C 795.60869,1297.137 791.95522,1299.2771 789.4375,1304.3125 C 787.15635,1308.8749 783.75403,1310.9919 781.625,1315.25 C 779.85883,1318.7824 777.40419,1321.3911 773.84375,1322.2812 C 769.73775,1323.3078 765.60693,1323.0625 761.34375,1323.0625 C 756.64462,1323.0625 753.5625,1318.735 753.5625,1313.6875 C 753.56247,1305.4403 759.87789,1305.0525 766.03125,1300.4375 C 769.88572,1297.5466 775.5173,1297.2014 778.53125,1294.1875 C 781.61775,1291.101 783.91408,1286.4612 787.09375,1283.2812 C 790.38256,1279.9924 791.78125,1278.3954 791.78125,1273.125 C 791.78125,1268.3227 790.01015,1265.885 787.09375,1262.9688 C 783.37975,1259.2548 781.33835,1257.0975 777.75,1254.4062 C 774.80501,1252.1975 767.5361,1252.8438 763.6875,1252.8438 C 757.8716,1252.8437 752.43754,1256.2503 747.3125,1257.5312 C 742.63569,1258.7005 737.40279,1258.3125 733.28125,1258.3125 C 727.98174,1258.3125 723.29327,1256.095 720,1253.625 C 717.61234,1251.8343 727.50945,1245.8448 728.59375,1245.0312 C 731.01885,1243.2124 738.2828,1245.8125 741.0625,1245.8125 C 745.33586,1245.8125 749.98549,1245.2569 753.5625,1243.4688 C 756.83071,1241.8347 760.97147,1241.8556 764.46875,1241.1562 C 769.23686,1240.2026 773.42999,1236.5615 774.625,1231.7812 C 775.67006,1227.6009 778.26551,1221.922 780.875,1219.3125 C 785.15491,1215.0326 789.87194,1211.6734 794.90625,1209.1562 C 799.299,1206.9598 801.26902,1203.7872 804.25,1199.8125 C 806.77353,1196.4478 808.89348,1192.8695 810.5,1189.6562 C 812.4215,1185.8132 813.93397,1182.0383 815.96875,1177.9688 C 817.8073,1174.2916 823.58821,1174.0625 827.65625,1174.0625 C 832.3233,1174.0625 836.75018,1173.2812 841.71875,1173.2812 C 845.99748,1173.2812 849.5903,1172.6723 853.40625,1171.7188 C 853.45916,1171.7055 853.48635,1171.7026 853.53125,1171.6875 C 855.78685,1173.0272 858.02365,1174.4156 860.03125,1175.2188 C 865.15728,1177.2691 870.68085,1175.4939 876.40625,1174.0625 C 882.81784,1172.4596 886.55494,1169.375 893.96875,1169.375 C 899.7588,1169.375 903.35316,1171.7598 908,1176.4062 C 910.61677,1179.0231 924.08813,1171.2688 925.5625,1170.5312 C 931.28386,1167.6707 935.24194,1167.7616 940.78125,1170.5312 C 944.77786,1172.5296 947.76143,1177.5115 951.3125,1181.0625 C 953.92894,1183.679 946.40701,1188.1581 947.78125,1191.5938 C 949.54945,1196.0142 941.72295,1199.0541 939.59375,1203.3125 C 937.17339,1208.1532 931.45404,1206.6213 929.0625,1216.1875 C 926.7847,1225.2986 933.793,1223.4814 939.59375,1222.0312 C 946.40579,1220.3282 950.15106,1218.5182 954.8125,1216.1875 C 959.53072,1213.8283 958.54599,1205.7384 959.5,1200.9688 C 960.72981,1194.8197 961.30165,1188.0217 964.1875,1182.25 C 966.99068,1176.6437 975.84384,1172.8911 980.5625,1170.5312 C 985.79639,1167.9144 992.39588,1168.4635 998.125,1167.0312 C 1003.8865,1165.5908 1010.3524,1162.0738 1014.5,1160 C 1017.8717,1158.3141 1022.7425,1152.363 1028.5312,1149.4688 C 1035.9138,1145.7775 1041.4426,1145.6628 1049.5938,1143.625 C 1056.8075,1141.8216 1063.0013,1137.5309 1069.5,1134.2812 C 1080.9891,1128.5366 1073.3887,1145.6015 1073,1147.1562 C 1071.2915,1153.9903 1068.3125,1156.9384 1068.3125,1164.6875 C 1068.3125,1170.8013 1068.118,1176.7223 1069.5,1182.25 C 1071.0711,1188.535 1070.6564,1193.7159 1070.6562,1200.9688 C 1070.6562,1207.2909 1068.1476,1212.9853 1065.9688,1217.3438 C 1063.8632,1221.5551 1056.7627,1224.1703 1053.0938,1229.0625 C 1049.304,1234.1154 1050.5891,1241.1998 1051.9375,1246.5938 C 1053.2251,1251.7442 1064.3575,1250.125 1068.3125,1250.125 C 1074.5072,1250.125 1081.003,1247.9345 1084.6875,1244.25 C 1089.1945,1239.7429 1096.5559,1239.4441 1101.0938,1234.9062 C 1105.3733,1230.6268 1103.2708,1220.2903 1104.5938,1215 C 1106.0997,1208.9763 1114.2458,1207.048 1119.8125,1205.6562 C 1127.7312,1203.6766 1134.1465,1204.1224 1142.0312,1200.9688 C 1150.2532,1197.6799 1153.3493,1193.6805 1158.4062,1186.9375 C 1161.3725,1182.9825 1167.0771,1178.9709 1170.125,1172.875 C 1173.3712,1166.3827 1181.7698,1163.5739 1186.5,1158.8438 C 1189.6661,1155.6776 1199.5615,1156.5933 1190,1151.8125 C 1182.8267,1148.2259 1178.3263,1147.7074 1171.2812,1149.4688 C 1167.6369,1150.3799 1159.8349,1156.9608 1154.9062,1163.5312 C 1149.9643,1170.1204 1140.8344,1176.4469 1135.0312,1182.25 C 1130.0725,1187.2088 1127.2948,1189.2814 1119.8125,1189.2812 C 1111.674,1189.2812 1105.9506,1191.9792 1108.0938,1183.4062 C 1109.0899,1179.4215 1119.7863,1174.363 1123.3125,1171.7188 C 1129.2223,1167.2864 1129.9841,1163.0943 1132.6875,1157.6875 C 1135.8091,1151.4441 1139.0807,1151.9897 1140.875,1144.8125 C 1142.5404,1138.1506 1146.4074,1138.4606 1153.75,1136.625 C 1161.3283,1134.7304 1164.2812,1128.4401 1164.2812,1121.4062 C 1164.2813,1116.9921 1146.5054,1123.2785 1145.5625,1123.75 C 1138.6815,1127.1905 1133.6285,1128.4062 1125.6562,1128.4062 C 1116.9209,1128.4062 1110.8598,1124.9064 1102.25,1124.9062 C 1093.1005,1124.9063 1092.1737,1123.9647 1095.2188,1117.875 C 1096.9097,1114.493 1115.953,1110.6524 1119.8125,1109.6875 C 1127.1867,1107.844 1136.8389,1107.4856 1142.0312,1106.1875 C 1149.1226,1104.4146 1155.3237,1105.7055 1157.25,1098 C 1158.8035,1091.7864 1163.7611,1091.7215 1170.125,1093.3125 C 1179.5732,1095.6745 1173.9992,1083.1078 1172.4688,1079.2812 C 1169.974,1073.0446 1167.9727,1067.2353 1166.5938,1061.7188 C 1165.0426,1055.5145 1165.4375,1048.6404 1165.4375,1041.8438 C 1165.4375,1035.3107 1172.0186,1027.2069 1173.625,1020.7812 C 1175.262,1014.2335 1177.6874,1007.3441 1180.6562,1004.375 C 1187.8484,997.18276 1197.1161,998.97337 1205.2188,1004.375 C 1215.6182,1011.308 1219.6167,1012.5625 1232.125,1012.5625 C 1242.3367,1012.5625 1252.5138,1011.1494 1261.375,1006.7188 C 1269.8527,1002.4795 1275.5156,1000.7969 1281.2812,995.03125 C 1285.208,991.10457 1284.108,980.48551 1289.4688,975.125 C 1296.2299,968.3639 1301.5271,959.56666 1308.1875,952.90625 C 1312.6447,948.44912 1319.6692,937.41702 1321.0625,931.84375 C 1322.9572,924.26493 1325.325,917.49991 1326.9062,909.59375 C 1328.2283,902.9834 1328.0938,896.53989 1328.0938,889.71875 C 1328.0938,882.45635 1322.8443,876.11758 1317.5625,872.15625 C 1310.7537,867.04957 1308.1875,873.21991 1308.1875,860.46875 C 1308.1875,852.77384 1295.67,858.50974 1291.8125,859.28125 C 1288.1123,860.02128 1280.4041,866.68942 1277.7812,868.65625 C 1272.568,872.56623 1261.8173,865.9399 1257.875,863.96875 C 1252.4005,861.2315 1245.0448,865.08047 1242.6562,867.46875 C 1237.0563,873.0688 1232.4817,878.73275 1228.625,883.875 C 1224.3835,889.53036 1218.7148,894.94168 1213.4062,900.25 C 1208.5114,905.14481 1202.6694,909.83067 1199.375,913.125 C 1196.7641,915.73596 1197.3977,927.61083 1195.875,930.65625 C 1193.572,935.26216 1182.7254,936.58426 1178.3125,937.6875 C 1171.6562,939.35156 1165.4875,944.11549 1159.5938,947.0625 C 1154.9004,949.40915 1148.7721,951.80699 1144.375,952.90625 C 1137.6395,954.59011 1132.8695,957.29924 1129.1562,962.25 C 1124.9496,967.8589 1123.3125,971.97306 1123.3125,979.8125 C 1123.3125,990.21809 1109.5807,986.84375 1102.25,986.84375 C 1098.4248,986.84373 1091.11,982.01968 1087.0312,981 C 1080.5951,979.39097 1072.2809,982.51583 1068.3125,984.5 C 1061.2062,988.05318 1057.0233,989.16245 1050.7812,993.84375 C 1044.9364,998.2273 1038.8392,999.59134 1032.0312,996.1875 C 1024.6814,992.51252 1024.5595,984.63133 1019.1875,977.46875 C 1014.8063,971.62706 1013.41,961.25757 1009.8125,954.0625 C 1006.5473,947.53209 999.01585,942.1096 994.59375,937.6875 C 992.64357,935.73729 990.7002,933.79395 988.75,931.84375 C 984.24154,927.33526 976.98601,923.91838 971.1875,922.46875 C 966.80724,921.37368 959.99852,910.09227 956,906.09375 C 949.23991,899.33371 948.07477,893.80579 944.28125,886.21875 C 940.77736,879.21098 950.38526,872.6355 953.65625,871 C 958.69108,868.48261 965.50716,868.65625 971.1875,868.65625 C 975.30784,868.65624 982.05174,871 987.59375,871 C 992.92882,871.00002 999.37642,865.06113 1001.625,862.8125 C 1005.3648,859.07272 990.98355,850.74548 989.90625,849.9375 C 983.28937,844.97482 981.92733,844.09375 973.53125,844.09375 C 966.60149,844.09374 960.53717,843.54392 954.8125,846.40625 C 947.28294,850.17106 942.46152,848.53617 940.78125,856.9375 C 939.66865,862.50063 935.5461,863.3289 931.40625,867.46875 C 926.53512,872.33982 925.22622,876.5924 926.75,882.6875 C 928.33389,889.02313 920.58937,893.79 918.53125,897.90625 C 917.11565,900.73744 921.81064,911.86569 922.0625,913.125 C 922.73896,916.50742 905.88018,903.97394 904.5,902.59375 C 897.8773,895.97103 893.76148,895.2041 891.625,903.75 C 890.99001,906.29008 909.4159,922.69715 911.53125,924.8125 C 914.94913,928.23036 924.69946,934.31103 930.25,936.53125 C 940.50833,940.63454 955.88594,956.65001 961.84375,964.59375 C 965.95941,970.08134 973.16074,978.26792 974.71875,984.5 C 976.50037,991.62641 980.33088,993.93567 981.71875,1000.875 C 983.16931,1008.1279 979.37133,1009.0644 972.375,1012.5625 C 967.46798,1015.016 951.63899,1004.7328 948.96875,1002.0625 C 943.6613,996.75509 935.68625,987.14957 931.40625,982.15625 C 926.60524,976.55509 924.74974,972.23115 917.375,969.28125 C 908.33162,965.66392 894.99976,956.28101 889.28125,950.5625 C 883.79066,945.07193 881.62261,939.93272 878.75,934.1875 C 876.03136,928.75023 875.72878,922.00887 874.09375,915.46875 C 872.34978,908.49287 867.41626,906.41504 865.875,900.25 C 864.22221,893.63878 859.24774,890.11595 857.6875,883.875 C 856.13762,877.67555 856.84898,873.83329 860.03125,867.46875 C 861.41177,864.7077 851.44193,857.72318 849.5,855.78125 C 847.13986,853.42112 838.93769,849.90634 836.625,848.75 C 831.51972,846.19734 823.93372,847.54001 819.09375,848.75 C 809.88633,851.05184 802.33846,856.69757 805.03125,867.46875 C 806.08847,871.69762 810.80764,876.51181 812.0625,881.53125 C 814.16895,889.95699 813.94229,890.18271 808.5625,895.5625 C 804.88741,899.23759 799.78383,904.04559 795.6875,906.09375 C 789.55465,909.1602 785.26979,909.59375 776.96875,909.59375 C 768.56188,909.59376 765.57067,908.95108 758.25,910.78125 C 752.17817,912.29922 747.36276,913.125 739.5,913.125 C 733.35338,913.12499 726.6165,915.46875 719.625,915.46875 C 711.27269,915.46877 707.9375,905.30181 707.9375,901.40625 C 707.93752,900.85257 723.68441,899.0625 725.46875,899.0625 C 731.49433,899.0625 738.1931,895.60513 744.1875,894.40625 C 750.8393,893.07589 755.85377,887.42414 759.40625,882.6875 C 760.31785,881.47199 751.45744,873.58244 750.03125,872.15625 C 746.7116,868.83659 746.68131,865.32466 745.6875,861.84375 C 747.99717,857.89081 741.45246,857.05981 738.9375,847 C 738.0014,843.25562 736.69609,822.43749 730.15625,822.4375 C 718.13981,822.4375 713.99926,820.49961 703.8125,815.40625 C 697.37616,812.18808 691.14351,811.12035 681,813.65625 C 669.04346,816.64538 671.6553,824.18749 659.9375,824.1875 C 653.29083,824.1875 650.00129,824.91261 647.0625,826.3125 C 644.57281,822.92301 642.60537,819.73037 640.4375,817.5625 C 636.85134,813.97632 634.04299,813.48049 631.09375,810.53125 C 628.39322,807.83073 621.21878,810.78749 618.59375,811.3125 C 614.49088,812.13308 610.4687,817.90631 608.46875,819.90625 C 605.99968,822.37534 603.50632,824.7687 600.65625,826.90625 C 600.60655,826.94352 600.55145,826.99432 600.5,827.03125 C 598.78374,825.06575 596.43962,823.43856 593.25,821.84375 C 589.1419,819.78972 582.4947,825.90212 578.03125,827.6875 C 573.4038,829.53845 570.26836,817.69843 569.84375,816 C 568.39084,810.18828 571.85874,804.77999 568.6875,798.4375 C 565.99578,793.05403 566.4269,788.41574 565.15625,782.0625 C 563.92336,775.8979 563.795,771.13249 565.15625,765.6875 C 565.25574,765.28955 565.33878,764.88782 565.40625,764.5 C 565.40983,764.47941 565.40275,764.45806 565.40625,764.4375 C 565.66528,763.6593 565.98128,762.91243 566.34375,762.1875 C 569.16674,756.5415 569.55903,749.32637 571.03125,743.4375 C 572.61178,737.11533 574.42741,731.85385 578.03125,728.25 C 583.88953,722.39175 588.83407,717.73164 593.25,711.84375 C 597.15615,706.63556 601.7878,706.51399 608.46875,704.84375 C 613.57125,703.56811 620.70935,704.84375 626,704.84375 C 632.24062,704.84373 638.50936,704.84375 644.75,704.84375 C 651.38065,704.84373 657.99432,704.84375 664.625,704.84375 C 670.76611,704.84373 675.21652,699.25837 681,697.8125 C 687.24166,696.2521 692.45051,693.49674 698.5625,691.96875 C 704.10275,690.58368 712.40798,691.90669 717.28125,693.125 C 724.84704,695.01646 729.8585,694.148 737.1875,697.8125 C 742.4062,700.42185 749.85061,700.06593 754.71875,702.5 C 761.00483,705.64306 765.13838,707.74553 772.28125,709.53125 C 780.34613,711.54744 788.03523,713.46194 795.6875,715.375 C 803.09823,717.22766 805.73035,719.20893 812.0625,722.375 C 819.06749,725.8775 825.24441,728.87164 831.96875,732.90625 C 837.45453,736.19772 844.91491,736.4375 851.84375,736.4375 C 858.44899,736.4375 863.76656,736.31985 868.21875,734.09375 C 872.29942,732.05344 878.67417,723.28861 881.09375,720.0625 C 884.34468,715.72795 884.625,707.26667 884.625,701.3125 C 884.62501,696.29919 892.24867,692.96193 895.15625,690.78125 C 899.05204,687.8594 910.22295,688.46875 915.03125,688.46875 C 922.14207,688.46877 926.44555,692.5786 929.0625,697.8125 C 931.57967,702.84684 939.49655,702.46007 944.28125,703.65625 C 951.68415,705.507 955.725,704.12812 961.84375,707.1875 C 966.10001,709.31565 969.99451,718.04475 972.375,721.21875 C 976.63191,726.89464 979.74912,730.08571 986.40625,731.75 C 993.76381,733.5894 995.75092,735.83603 1002.7812,737.59375 C 1008.7973,739.0975 1013.7766,742.12414 1020.3438,743.4375 C 1028.299,745.02881 1033.3419,748.78034 1041.4062,752.8125 C 1046.3462,755.28246 1048.6483,764.92181 1050.7812,769.1875 C 1054.0053,775.63569 1057.1651,784.22432 1058.9688,791.4375 C 1060.863,799.01466 1065.7573,804.52387 1058.9688,811.3125 C 1053.5943,816.68685 1053.3439,820.90545 1051.9375,826.53125 C 1050.0774,833.97161 1053.7014,839.40284 1056.625,845.25 C 1059.0685,850.13705 1070.7807,848.75 1075.3438,848.75 C 1083.3729,848.74999 1089.3753,846.9062 1096.4062,844.09375 C 1101.102,842.21545 1107.0125,842.90625 1112.7812,842.90625 C 1120.192,842.90622 1127.6208,842.90625 1135.0312,842.90625 C 1142.442,842.90622 1149.8393,842.90625 1157.25,842.90625 C 1163.1608,842.90622 1171.7695,843.91114 1177.125,845.25 C 1182.2273,846.52563 1189.3969,845.25 1194.6875,845.25 C 1202.3665,845.25 1204.97,843.57002 1212.25,841.75 C 1217.9091,840.33526 1222.6309,840.90477 1228.625,839.40625 C 1234.3628,837.9718 1238.7033,836.29291 1245,834.71875 C 1248.5239,833.83779 1251.1876,833.37419 1253.1875,832.53125 C 1253.584,832.89348 1253.987,833.25211 1254.375,833.5625 C 1256.7633,835.47306 1266.8864,835.1982 1269.5938,835.875 C 1275.6327,837.38472 1280.0236,839.37305 1284.7812,840.5625 C 1290.6635,842.03307 1294.0713,849.3147 1301.1875,851.09375 C 1309.6358,853.20586 1312.0323,849.59271 1316.375,845.25 C 1324.731,836.89394 1331.4634,833.3093 1337.4375,825.34375 C 1340.2192,821.6349 1350.1025,820.72437 1355,819.5 C 1362.964,817.50901 1366.1726,817.70243 1372.5625,811.3125 C 1377.8602,806.0149 1381.3046,803.17204 1384.25,797.28125 C 1386.2525,793.27617 1385.7646,785.37927 1386.5938,782.0625 C 1388.1245,775.93948 1394.3894,770.76691 1397.125,768.03125 C 1401.1959,763.96035 1402.0087,758.34727 1400.625,752.8125 C 1397.1232,738.80577 1415.1169,727.4253 1422.875,721.21875 C 1428.6013,716.63774 1434.4114,714.84116 1440.4062,711.84375 C 1446.6572,708.7183 1453.6424,706.99127 1460.3125,703.65625 C 1467.6782,699.9734 1472.4518,695.27259 1476.6875,689.625 C 1481.365,683.38831 1486.5627,677.09312 1488.4062,669.71875 C 1489.58,665.02397 1498.8659,656.91532 1502.4375,653.34375 C 1506.5162,649.26514 1511.175,644.02499 1514.125,638.125 C 1517.2489,631.87704 1522.3922,626.3578 1527,621.75 C 1529.9769,618.77308 1534.055,611.06146 1535.1875,606.53125 C 1536.7627,600.23035 1539.5114,595.20456 1541.0625,589 C 1542.723,582.35859 1541.377,571.60162 1539.875,565.59375 C 1537.9163,557.75915 1542.6449,548.33503 1545.7188,542.1875 C 1548.7924,536.04015 1549.25,529.3456 1549.25,522.3125 C 1549.2499,516.55844 1550.4062,509.75812 1550.4062,503.5625 C 1550.4062,502.60173 1550.3488,501.72752 1550.25,500.90625 C 1550.7426,499.49656 1551.2189,498.06202 1551.5938,496.5625 C 1553.8826,487.4072 1559.3716,484.47563 1563.2812,476.65625 C 1564.8268,473.56517 1572.3618,465.35744 1570.3125,462.625 C 1566.9619,458.15758 1564.4375,450.33724 1564.4375,443.90625 C 1564.4375,438.05566 1564.4375,432.19436 1564.4375,426.34375 C 1564.4375,421.08494 1569.8033,410.33834 1569.125,407.625 C 1567.9256,402.82764 1567.9688,397.44544 1567.9688,391.25 C 1567.9688,383.06405 1566.2842,378.73068 1564.4375,371.34375 C 1562.6958,364.37683 1556.478,357.981 1551.5938,351.46875 C 1547.4585,345.9551 1547.4022,341.43347 1543.375,337.40625 C 1540.2203,334.25152 1535.3787,331.10827 1534.0312,325.71875 C 1532.4079,319.22523 1527.4971,313.19914 1529.3438,305.8125 C 1530.531,301.06378 1531.6175,293.71252 1530.5312,288.28125 C 1529.4355,282.80241 1527.0611,279.39392 1522.3125,273.0625 C 1519.3877,269.16282 1516.3064,261.23762 1511.7812,257.84375 C 1507.1972,254.40572 1502.0239,250.66726 1497.75,244.96875 C 1495.2857,241.68308 1490.7303,233.5712 1487.2188,230.9375 C 1484.7242,229.06656 1477.2502,219.15708 1476.6875,216.90625 C 1475.0126,210.2066 1471.7905,206.73476 1467.3438,202.84375 C 1455.4598,192.44535 1455.8542,189.96875 1442.75,189.96875 C 1435.2302,189.96875 1427.0097,194.22898 1419.3438,192.3125 C 1412.9565,190.7157 1405.8875,191.5734 1399.4688,189.96875 C 1392.7725,188.29467 1389.252,187.97077 1384.25,182.96875 C 1380.3507,179.06949 1374.9925,178.35793 1369.0312,174.78125 C 1361.8911,170.49713 1356.0916,169.21927 1347.9688,171.25 C 1339.4745,173.37358 1330.1756,177.125 1321.0625,177.125 C 1314.8219,177.125 1308.5844,177.125 1302.3438,177.125 C 1293.7629,177.125 1285.1746,177.125 1276.5938,177.125 C 1268.957,177.125 1262.1697,176.86434 1256.7188,173.59375 C 1248.5412,168.6872 1245.4374,163.87492 1236.8125,159.5625 C 1236.0352,159.17386 1235.2687,158.71629 1234.5,158.25 C 1235.9943,151.89867 1231.3985,147.57694 1229.7812,144.34375 C 1226.9155,138.61233 1225.2344,133.97938 1221.5938,129.125 C 1217.5802,123.77372 1216.2102,122.58521 1211.0625,117.4375 C 1208.3515,114.72645 1193.4875,114.07691 1188.8438,112.75 C 1178.4133,109.76989 1166.6923,111.62736 1157.25,106.90625 C 1143.6254,100.09387 1141.6276,100.57115 1138.5312,88.1875 C 1137.1362,82.607559 1137.3436,73.773799 1137.3438,68.28125 C 1137.3438,62.231967 1137.5278,56.111121 1136.1875,50.75 C 1135.5518,48.207178 1135.5183,45.136167 1135.6562,42.03125 C 1138.0214,41.130566 1140.164,39.742346 1142.0312,37.875 C 1146.0787,33.827491 1148.9284,25.268268 1151.4062,20.3125 C 1155.3129,12.499414 1151.8878,3.7442829 1149.0625,-1.90625 C 1146.2343,-7.5627104 1145.3906,-13.447891 1140.875,-19.46875 C 1137.2457,-24.307736 1134.8218,-29.021986 1129.1562,-34.6875 C 1123.912,-39.931741 1120.8509,-41.836612 1115.125,-47.5625 C 1111.0093,-51.678198 1107.7074,-58.598148 1104.5938,-62.75 C 1101.2264,-67.239828 1097.791,-72.195407 1095.2188,-75.625 C 1091.6222,-80.420373 1086.3389,-86.384764 1083.5312,-92 C 1081.0779,-96.906639 1076.7775,-101.48301 1075.3438,-107.21875 C 1073.8501,-113.19285 1068.8582,-115.63051 1067.1562,-122.4375 C 1065.8162,-127.79775 1060.4671,-131.09693 1057.7812,-136.46875 C 1055.3551,-141.32104 1051.9938,-145.7309 1049.5938,-150.53125 C 1047.2853,-155.14827 1054.2812,-160.47137 1054.2812,-165.71875 C 1054.2813,-175.08672 1048.3295,-172.9348 1044.9062,-179.78125 C 1041.9934,-185.6068 1039.5242,-189.68514 1037.9062,-196.15625 C 1036.4801,-201.86126 1036.7188,-207.65832 1036.7188,-213.71875 C 1036.7187,-217.16512 1049.4019,-225.52547 1051.9375,-228.90625 C 1054.1092,-231.80187 1053.0938,-245.29606 1053.0938,-248.8125 C 1053.0937,-255.66796 1055.4375,-262.42736 1055.4375,-269.875 C 1055.4374,-277.31112 1053.1664,-281.33435 1051.9375,-286.25 C 1050.5451,-291.81931 1045.205,-297.67002 1040.25,-302.625 C 1034.8071,-308.0679 1031.7686,-312.29384 1027.375,-316.6875 C 1022.9916,-321.07092 1016.6839,-326.19114 1013.3125,-329.5625 C 1008.8782,-333.99684 1004.7024,-335.82892 1000.4375,-340.09375 C 995.7696,-344.76167 994.47032,-349.56093 988.75,-355.28125 C 985.27892,-358.75234 985.36301,-365.64098 981.71875,-370.5 C 975.78773,-378.40802 964.85237,-382.01401 960.65625,-390.40625 C 957.10976,-397.49929 946.75915,-403.61454 941.9375,-409.125 C 938.15211,-413.45114 933.91067,-416.65404 927.90625,-419.65625 C 919.11848,-424.05014 910.9015,-431.09612 903.34375,-434.875 C 897.78137,-437.6562 892.4538,-440.30435 886.9375,-443.0625 C 882.83268,-445.11491 876.80172,-446.95851 872.90625,-448.90625 C 865.53736,-452.59069 858.58314,-456.06781 851.84375,-459.4375 C 847.83452,-461.44213 847.91729,-460.52096 842.5,-459.4375 C 839.43019,-458.67006 828.04045,-461.78125 821.4375,-461.78125 C 813.68562,-461.78125 808.89904,-460.59375 801.53125,-460.59375 C 794.58514,-460.59374 788.03351,-460.49955 781.625,-461.78125 C 780.0045,-462.10536 778.21485,-462.26239 776.375,-462.28125 z M 296.03125,837.0625 C 307.70524,837.06253 307.59015,838.48659 317.09375,846.40625 C 321.19225,849.82168 323.31954,853.7084 327.625,856.9375 C 330.01898,858.73297 340.85238,857.46742 344.65625,858.03125 C 344.74425,859.09697 344.78125,860.1655 344.78125,861.25 C 344.78125,864.7771 343.93083,869.53586 344.78125,872.9375 C 345.73577,876.75554 345.56251,881.16714 345.5625,885.4375 C 345.5625,888.9646 344.7121,893.72334 345.5625,897.125 C 346.35342,900.28867 345.63632,906.61641 347.125,909.59375 C 349.27113,913.88601 349.70434,917.4599 352.59375,921.3125 C 355.83371,925.63244 356.54606,926.3939 361.1875,929.875 C 364.59929,932.43385 366.43397,935.93401 369.75,939.25 C 372.61407,942.11406 377.73032,945.05439 379.90625,949.40625 C 381.81261,953.21897 386.77457,955.36162 388.46875,958.75 C 389.88366,961.57981 392.60548,966.79295 395.5,969.6875 C 398.92854,973.11604 401.47544,976.13842 403.3125,979.8125 C 404.7957,982.7789 407.1875,988.74709 407.1875,991.53125 C 407.1875,996.21053 408.75,1000.6856 408.75,1004.7812 C 408.75,1009.4626 408.75,1014.132 408.75,1018.8125 C 408.75,1025.6157 406.24483,1028.3346 399.40625,1026.625 C 395.21178,1025.5763 388.6338,1022.0612 385.34375,1019.5938 C 381.32648,1016.58 378.53587,1014.2524 373.65625,1011.8125 C 369.00232,1009.4856 365.42168,1006.6717 361.1875,1002.4375 C 357.5156,998.76559 354.74622,995.2462 351.03125,991.53125 C 347.4527,987.9527 343.10327,986.69699 339.34375,982.9375 C 335.97205,979.56579 333.19582,975.22708 329.96875,972 C 326.69367,968.72492 323.63339,966.32933 321.40625,961.875 C 319.5563,958.1751 318.77415,954.26707 316.71875,950.15625 C 314.5404,945.79956 314.28982,943.30312 311.25,939.25 C 309.29413,936.64217 304.74256,931.97018 304.21875,929.875 C 303.1335,925.53399 300.59268,923.08943 299.5625,918.96875 C 298.76329,915.77191 297.39402,909.80023 294.875,907.28125 C 290.41562,902.82188 286.1609,898.44681 283.15625,892.4375 C 281.08163,888.28825 278.63683,884.83871 276.15625,881.53125 C 273.30433,877.7287 272.05281,874.88687 269.90625,870.59375 C 268.22615,867.23354 267.56249,864.36116 267.5625,859.6875 C 267.5625,854.41413 270.38393,852.17856 273.8125,848.75 C 275.84672,846.71578 279.98109,842.55636 283.15625,840.96875 C 284.90353,840.09512 286.84758,838.87528 288.5625,837.5625 C 290.79154,837.23393 293.18275,837.0625 296.03125,837.0625 z M 504.3125,914.28125 C 512.1829,914.28125 519.45301,916.62497 526.5625,916.625 C 533.53837,916.625 536.79922,917.43418 542.9375,918.96875 C 549.95388,920.72284 556.1095,923.49743 564,924.8125 C 570.30091,925.86266 579.38933,930.65627 585.0625,930.65625 C 591.79067,930.65625 598.67301,931.43386 604.9375,933 C 611.06262,934.53128 618.05121,934.18751 624.84375,934.1875 C 632.49561,934.1875 635.88675,934.65526 641.21875,930.65625 C 646.05704,927.02753 650.10866,922.89467 656.4375,921.3125 C 662.36997,919.82938 673.67411,920.64954 677.5,920.125 C 685.44422,920.125 683.29999,923.04376 690.375,924.8125 C 695.39764,926.06816 699.21726,927.90589 705.59375,929.5 C 711.5449,930.98779 716.14529,930.97616 721.96875,935.34375 C 726.17172,938.49597 728.99468,944.66685 725.46875,951.71875 C 722.72732,957.20161 717.50583,970.24414 713.78125,973.96875 C 706.49597,981.25403 703.97978,986.62068 698.5625,993.84375 C 693.99224,999.93743 684.36185,1005.8388 681,1012.5625 C 679.16002,1016.2425 674.09437,1031.3125 668.125,1031.3125 C 657.98902,1031.3125 657.92268,1030.454 651.75,1024.2812 C 647.24909,1019.7804 647.37838,1010.5347 643.5625,1006.7188 C 637.92389,1001.0799 637.29237,995.29744 630.6875,990.34375 C 624.62342,985.7957 617.43926,983.6491 615.46875,991.53125 C 614.42852,995.69216 613.6025,1002.7947 607.28125,1004.375 C 600.34957,1006.1079 593.27798,1004.375 586.21875,1004.375 C 579.09329,1004.375 571.76236,1004.8701 565.15625,1003.2188 C 559.4139,1001.783 553.42721,1000.0383 548.78125,993.84375 C 545.63564,989.64961 539.51176,978.69335 534.75,976.3125 C 529.35547,973.61523 523.73874,971.96314 518.375,969.28125 C 513.81425,967.00088 510.46277,965.97207 505.5,962.25 C 500.45757,958.46817 496.6133,951.29692 494.96875,944.71875 C 493.5908,939.20695 493.74164,934.47937 494.96875,928.34375 C 496.38091,921.28299 494.44474,914.28125 504.3125,914.28125 z "
           id="path7165" />
      </g>
    </g>
  </g>
</svg>
